<svg width="133" height="46" viewBox="0 0 133 46" fill="none" xmlns="http://www.w3.org/2000/svg">
<path fill-rule="evenodd" clip-rule="evenodd" d="M57.4552 19.3665C58.0454 18.8331 58.3403 18.1092 58.3403 17.1951C58.3403 16.7316 58.2662 16.3189 58.1186 15.9575C57.9714 15.5988 57.7505 15.2877 57.4556 15.025C57.1584 14.7597 56.7936 14.5506 56.3615 14.3969C55.9231 14.2418 55.4156 14.1434 54.8391 14.1022L54.7005 14.0926V13.3477H53.1886V14.0917L53.051 14.1022C52.4712 14.1466 51.9614 14.2477 51.5225 14.4051C51.0882 14.5602 50.7238 14.7702 50.4289 15.0346C50.1358 15.2973 49.9159 15.6079 49.7696 15.9653C49.6224 16.3249 49.5488 16.7348 49.5488 17.1951C49.5488 17.6554 49.6229 18.0653 49.771 18.424C49.9182 18.7804 50.139 19.0893 50.433 19.3501C50.7302 19.6131 51.095 19.8222 51.528 19.9764C51.9665 20.1329 52.474 20.2336 53.051 20.2779L53.1886 20.2885V21.085H54.7005V20.2862L54.8409 20.2779C55.4174 20.2436 55.9245 20.1498 56.362 19.9961C56.7936 19.8447 57.158 19.6346 57.4552 19.3665ZM55.6744 18.7713C55.4444 18.8601 55.1751 18.9223 54.8665 18.9589L54.7005 18.9781V15.4117L54.867 15.4318C55.1692 15.4684 55.4343 15.5297 55.6611 15.6162C55.8947 15.7049 56.0891 15.8207 56.2445 15.963C56.5604 16.2512 56.7186 16.6584 56.7186 17.185C56.7186 17.4435 56.6807 17.6746 56.6057 17.8787C56.5284 18.0868 56.4123 18.2657 56.2578 18.4144C56.1051 18.5613 55.9103 18.6802 55.6744 18.7713ZM51.2889 17.8814C51.2103 17.6801 51.1709 17.4513 51.1709 17.1951C51.1709 16.9339 51.208 16.701 51.2825 16.4969C51.3589 16.2883 51.4741 16.1108 51.6277 15.9653C51.779 15.8216 51.9729 15.7054 52.2097 15.6162C52.4401 15.5297 52.7113 15.4684 53.0231 15.4318L53.1886 15.4126V18.9703L53.0199 18.9479C52.7213 18.9076 52.4589 18.8436 52.233 18.7553C52.0008 18.6647 51.8065 18.5485 51.6501 18.4076C51.4896 18.2625 51.3689 18.0868 51.2889 17.8814ZM61.3204 13.6936H59.6685V20.7387H61.3103L64.4183 16.0975V20.7387H66.0702V13.6936H64.438L61.3204 18.3453V13.6936ZM74.2299 20.7387V13.6936H72.5478V16.4525H69.55V13.6936H67.8679V20.7387H69.55V17.875H72.5478V20.7387H74.2299ZM77.749 19.3121H80.8104L81.3604 20.7387H83.0946L80.1205 13.6936H78.3671L75.4026 20.7387H77.097L77.647 19.3121H77.749ZM79.3679 15.527L80.345 18.0786H78.112L79.2285 15.1637L79.3679 15.527ZM90.6292 20.7387V13.6936H88.9472V16.4525H85.9493V13.6936H84.2673V20.7387H85.9493V17.875H88.9472V20.7387H90.6292ZM94.6796 20.7684C94.996 20.8466 95.3325 20.8855 95.6882 20.8855C95.9995 20.8855 96.294 20.8572 96.5706 20.8C96.8472 20.7432 97.1087 20.6572 97.3556 20.5428C97.6016 20.4294 97.826 20.2903 98.03 20.1269C98.2005 19.9897 98.3564 19.836 98.4972 19.6648L97.4502 18.6711C97.2376 18.9136 97.0058 19.1003 96.7544 19.2316C96.4576 19.3862 96.1353 19.4635 95.7878 19.4635C95.5871 19.4635 95.3951 19.4397 95.2127 19.3926H95.2118C95.0298 19.3455 94.8583 19.2746 94.6979 19.1803C94.5369 19.0852 94.3938 18.9708 94.269 18.8372C94.1456 18.7049 94.0395 18.5521 93.9508 18.3801C93.8635 18.2099 93.7981 18.0269 93.7542 17.832C93.7108 17.6371 93.6893 17.4321 93.6893 17.2161C93.6893 17.0007 93.7108 16.7957 93.7542 16.6008C93.7981 16.4059 93.8635 16.2229 93.9508 16.0527C94.0395 15.8806 94.1456 15.7278 94.269 15.5951C94.3938 15.4615 94.5369 15.3476 94.6979 15.2524C94.8583 15.1582 95.0298 15.0868 95.2118 15.0401C95.3946 14.9926 95.5867 14.9692 95.7878 14.9692C96.1353 14.9692 96.4576 15.0465 96.7544 15.2012C97.0058 15.332 97.2376 15.5192 97.4507 15.7617L98.4972 14.7679C98.3564 14.5968 98.2005 14.4426 98.03 14.3058C97.826 14.142 97.6016 14.0034 97.3556 13.8895C96.8627 13.6611 96.3068 13.5468 95.6882 13.5468C95.3325 13.5468 94.9964 13.5861 94.6796 13.6643C94.3632 13.7421 94.0651 13.8593 93.7853 14.0153C93.5055 14.1713 93.2559 14.358 93.0359 14.5753C92.816 14.7922 92.6263 15.0401 92.4667 15.3179C92.3072 15.5956 92.1874 15.8925 92.1074 16.2087C92.0274 16.5248 91.9871 16.8611 91.9871 17.2161C91.9871 17.5716 92.0274 17.9075 92.1074 18.2241C92.1874 18.5402 92.3072 18.8372 92.4667 19.1144C92.6263 19.3926 92.816 19.6401 93.0359 19.8575C93.2559 20.0743 93.5055 20.261 93.7853 20.417C94.0651 20.573 94.3632 20.6902 94.6796 20.7684ZM101.859 20.767C102.18 20.8462 102.519 20.8855 102.878 20.8855C103.237 20.8855 103.576 20.8462 103.896 20.767C104.216 20.6883 104.517 20.5698 104.801 20.412C105.084 20.2541 105.336 20.0661 105.558 19.8483C105.78 19.6305 105.972 19.3821 106.134 19.1035C106.296 18.8244 106.417 18.5283 106.498 18.2154C106.578 17.9024 106.618 17.5689 106.618 17.2161C106.618 16.8634 106.578 16.5303 106.498 16.2169C106.417 15.9044 106.296 15.6079 106.134 15.3293C105.972 15.0507 105.78 14.8022 105.558 14.5844C105.336 14.3667 105.084 14.1786 104.801 14.0208C104.517 13.8629 104.215 13.7444 103.896 13.6653C103.576 13.5866 103.237 13.5468 102.878 13.5468C102.519 13.5468 102.18 13.5866 101.859 13.6653C101.54 13.7444 101.238 13.8629 100.955 14.0208C100.672 14.1786 100.419 14.3667 100.197 14.5844C99.9749 14.8022 99.7829 15.0507 99.6215 15.3293C99.4596 15.6079 99.3385 15.9044 99.258 16.2169C99.1771 16.5303 99.1368 16.8634 99.1368 17.2161C99.1368 17.5689 99.1771 17.9024 99.258 18.2154C99.3385 18.5283 99.4596 18.8244 99.6215 19.1035C99.7829 19.3821 99.9749 19.6305 100.197 19.8483C100.419 20.0661 100.672 20.2541 100.955 20.412C101.238 20.5698 101.54 20.6883 101.859 20.767ZM103.422 19.3922C103.248 19.4397 103.066 19.4635 102.878 19.4635C102.689 19.4635 102.508 19.4397 102.334 19.3922C102.16 19.3446 101.995 19.2737 101.84 19.1789C101.685 19.0842 101.546 18.9703 101.423 18.8367C101.302 18.7045 101.196 18.5526 101.106 18.3815C101.017 18.2108 100.95 18.0273 100.905 17.8324C100.861 17.638 100.839 17.4326 100.839 17.2161C100.839 17.0002 100.861 16.7948 100.905 16.6003C100.95 16.4049 101.017 16.2219 101.106 16.0513C101.196 15.8802 101.302 15.7283 101.423 15.596C101.546 15.4624 101.685 15.3481 101.84 15.2533C101.995 15.1591 102.16 15.0882 102.334 15.0406C102.508 14.993 102.689 14.9692 102.878 14.9692C103.066 14.9692 103.248 14.993 103.422 15.0406C103.596 15.0882 103.761 15.1591 103.915 15.2533C104.07 15.3481 104.209 15.4624 104.332 15.596C104.454 15.7283 104.559 15.8802 104.649 16.0513C104.738 16.2219 104.806 16.4049 104.85 16.5999C104.894 16.7948 104.917 17.0002 104.917 17.2161C104.917 17.4326 104.894 17.638 104.85 17.8324C104.806 18.0273 104.738 18.2108 104.649 18.3815C104.559 18.5526 104.454 18.7045 104.332 18.8367C104.209 18.9703 104.07 19.0842 103.915 19.1789C103.76 19.2737 103.596 19.3446 103.422 19.3922ZM113.389 17.4385C113.243 17.3383 113.074 17.255 112.879 17.1892L112.551 17.078L112.858 16.9169C113 16.8428 113.124 16.7559 113.233 16.6557C113.34 16.5568 113.431 16.4457 113.505 16.3217C113.579 16.1977 113.635 16.0636 113.672 15.92C113.71 15.7763 113.728 15.6207 113.728 15.4537C113.728 15.1724 113.675 14.9244 113.57 14.7107C113.466 14.498 113.307 14.3159 113.096 14.164C112.658 13.8506 112.035 13.6936 111.228 13.6936H107.976V20.7387H111.417C111.849 20.7387 112.229 20.6938 112.557 20.6042C112.88 20.5163 113.155 20.3845 113.381 20.2088C113.604 20.0368 113.771 19.8332 113.882 19.5985C113.993 19.3629 114.048 19.0934 114.048 18.79C114.048 18.3883 113.95 18.0543 113.753 17.7876C113.654 17.654 113.533 17.5373 113.389 17.4385ZM111.037 16.631H109.628V14.885H111.037C111.354 14.885 111.596 14.9578 111.764 15.1028C111.939 15.2529 112.026 15.4711 112.026 15.758C112.026 16.34 111.697 16.631 111.037 16.631ZM112.081 19.318C111.91 19.4709 111.661 19.5473 111.337 19.5473H109.628V17.7386H111.337C112.01 17.7386 112.346 18.0365 112.346 18.6327C112.346 18.9323 112.258 19.1606 112.081 19.318ZM119.936 16.1771C119.619 16.0815 119.252 16.033 118.837 16.033H117.068V13.6936H115.416V20.7387H118.577C119.026 20.7387 119.424 20.6851 119.771 20.5781C120.112 20.4724 120.406 20.3141 120.65 20.1036C120.892 19.8959 121.073 19.6415 121.194 19.3405C121.317 19.0353 121.378 18.6802 121.378 18.2758C121.378 17.8988 121.323 17.5703 121.213 17.2903C121.106 17.0148 120.944 16.7847 120.73 16.5994C120.512 16.4123 120.248 16.2714 119.936 16.1771ZM118.945 19.4681C118.796 19.5207 118.631 19.5473 118.447 19.5473H117.068V17.2139H118.447C118.847 17.2139 119.152 17.3063 119.362 17.4902C119.578 17.6787 119.686 17.9551 119.686 18.3179C119.686 18.5064 119.658 18.6757 119.603 18.8253C119.546 18.9795 119.46 19.1121 119.345 19.2224C119.231 19.3318 119.098 19.4137 118.945 19.4681ZM124.098 13.6936H122.446V20.7387H124.098V13.6936ZM127.558 13.6936H125.906V20.7387H127.548L130.655 16.0975V20.7387H132.308V13.6936H130.675L127.558 18.3453V13.6936ZM128.218 12.8531C128.463 12.9209 128.756 12.9547 129.097 12.9547C129.442 12.9547 129.738 12.9209 129.985 12.8531C130.225 12.7877 130.42 12.6898 130.57 12.5608C130.839 12.3293 130.987 11.9898 131.013 11.5432H129.974C129.964 11.6233 129.948 11.6965 129.924 11.7629C129.885 11.8754 129.827 11.9697 129.751 12.0452C129.602 12.1929 129.383 12.2671 129.097 12.2671C128.957 12.2671 128.835 12.2497 128.73 12.2149C128.617 12.1774 128.523 12.1197 128.449 12.042C128.377 11.9665 128.322 11.8722 128.285 11.7606C128.264 11.6951 128.248 11.6224 128.239 11.5432H127.2C127.212 11.7468 127.248 11.9276 127.309 12.0854C127.382 12.2757 127.492 12.4345 127.639 12.5617C127.787 12.6903 127.98 12.7877 128.218 12.8531ZM53.3696 26.6156H55.3607V25.2668H49.4189V26.6156H51.5687V32.3119H53.2206V26.6156H53.3696ZM61.8905 32.3119V31.0052H58.2306V29.364H61.3405V28.1099H58.2306V26.5735H61.7602V25.2668H56.5687V32.3119H61.8905ZM67.9557 25.5825C67.5095 25.3721 66.9805 25.2668 66.3692 25.2668H63.3183V32.3119H65.0004V30.3921H66.3692C66.676 30.3921 66.9622 30.3655 67.2274 30.3125C67.4912 30.2598 67.734 30.1812 67.9557 30.0764C68.177 29.9721 68.3722 29.8458 68.5418 29.6985C68.7101 29.5521 68.8541 29.3837 68.973 29.1933C69.0919 29.003 69.181 28.7953 69.2404 28.5702C69.3003 28.3442 69.3301 28.0989 69.3301 27.8345C69.3301 27.5705 69.3003 27.3248 69.2404 27.0979C69.1806 26.8714 69.0914 26.6618 68.973 26.4701C68.8541 26.2789 68.7101 26.1091 68.5414 25.9614C68.3722 25.8136 68.177 25.6873 67.9557 25.5825ZM66.8273 28.9779C66.6595 29.0286 66.4671 29.0538 66.2494 29.0538H65.0004V26.6051H66.2494C66.4666 26.6051 66.6595 26.6312 66.8278 26.6829C67.0024 26.7369 67.1497 26.8183 67.2695 26.9272C67.3897 27.0375 67.4798 27.1702 67.5401 27.3248C67.5986 27.4758 67.6284 27.6455 67.6284 27.8345C67.6284 28.0244 67.5986 28.1941 67.5401 28.3437C67.4802 28.4974 67.3892 28.6288 67.2681 28.7376C67.1483 28.8452 67.0011 28.9252 66.8273 28.9779ZM71.889 30.8853H74.9504L75.5004 32.3119H77.2346L74.2605 25.2668H72.5072L69.5427 32.3119H71.2375L71.7871 30.8853H71.889ZM73.508 27.0997L74.4855 29.6518H72.2525L73.369 26.7369L73.508 27.0997ZM84.6797 32.3119V25.2668H78.4078V32.3119H80.0597V26.6156H83.0173V32.3119H84.6797ZM91.7992 32.3119V31.0052H88.1393V29.364H91.2492V28.1099H88.1393V26.5735H91.6694V25.2668H86.4774V32.3119H91.7992ZM98.6399 29.0113C98.494 28.9111 98.3239 28.8282 98.1301 28.7624L97.8014 28.6512L98.1091 28.4901C98.2503 28.416 98.3751 28.3291 98.4835 28.2289C98.5905 28.1301 98.6815 28.0184 98.7555 27.8949C98.8301 27.7704 98.8858 27.6364 98.9229 27.4932C98.9604 27.3495 98.9791 27.1939 98.9791 27.0269C98.9791 26.7456 98.9261 26.4976 98.8209 26.2839C98.7162 26.0712 98.558 25.8891 98.3463 25.7372C97.9088 25.4238 97.2861 25.2668 96.4782 25.2668H93.2271V32.3119H96.668C97.0996 32.3119 97.4795 32.267 97.8078 32.1774C98.131 32.0891 98.4058 31.9573 98.6321 31.782C98.8547 31.6096 99.0216 31.406 99.1323 31.1712C99.2434 30.9356 99.2991 30.6661 99.2991 30.3628C99.2991 29.9615 99.2004 29.6271 99.0038 29.3603C98.905 29.2267 98.7839 29.1105 98.6399 29.0113ZM96.288 28.2042H94.8789V26.4582H96.288C96.6044 26.4582 96.8467 26.531 97.015 26.6756C97.1896 26.8256 97.2769 27.0443 97.2769 27.3312C97.2769 27.9132 96.9473 28.2042 96.288 28.2042ZM97.3318 30.8912C97.1604 31.0441 96.9121 31.1205 96.5879 31.1205H94.8789V29.3118H96.5879C97.2605 29.3118 97.597 29.6097 97.597 30.2054C97.597 30.5051 97.5087 30.7338 97.3318 30.8912ZM103.918 26.6156H105.909V25.2668H99.9667V26.6156H102.117V32.3119H103.769V26.6156H103.918Z" fill="#013D62"/>
<path fill-rule="evenodd" clip-rule="evenodd" d="M14.3559 0.801819H28.5141C28.9891 0.801819 29.3782 1.19072 29.3782 1.66655V12.9478C29.4019 13.3839 29.7055 13.6753 30.0535 13.6881H41.8319C42.3887 13.6881 42.8441 14.1438 42.8441 14.7011V31.2984C42.8441 31.8557 42.3887 32.3114 41.8319 32.3114H30.0608C29.6726 32.3279 29.3951 32.6106 29.3782 33.0531V44.3334C29.3782 44.8088 28.9891 45.1982 28.5141 45.1982H14.3559C13.8804 45.1982 13.4918 44.8088 13.4918 44.3334V33.0457C13.4127 32.6115 13.1836 32.3379 12.8101 32.3114H1.03763C0.48122 32.3114 0.0253906 31.8557 0.0253906 31.2984V14.7011C0.0253906 14.1438 0.48122 13.6881 1.03763 13.6881H12.8174C13.1887 13.6598 13.4616 13.3884 13.4918 12.9552V1.66655C13.4918 1.19072 13.8804 0.801819 14.3559 0.801819Z" fill="#FF4736"/>
<path d="M8.25656 16.0623C8.4975 16.0623 8.71559 16.1602 8.87378 16.3185L8.87423 16.3194C9.03243 16.4772 9.13027 16.6959 9.13027 16.9366C9.13027 17.1773 9.03243 17.3955 8.87423 17.5538L8.87378 17.5547C8.71559 17.7126 8.4975 17.8105 8.25656 17.8105C8.01607 17.8105 7.79798 17.7126 7.63979 17.5547L7.63933 17.5538C7.48114 17.3955 7.3833 17.1773 7.3833 16.9366C7.3833 16.6959 7.48114 16.4772 7.63933 16.3194L7.63979 16.3185C7.79798 16.1602 8.01607 16.0623 8.25656 16.0623ZM8.6054 16.5875C8.51625 16.4987 8.3928 16.4438 8.25656 16.4438C8.12031 16.4438 7.99732 16.4987 7.90817 16.5875C7.81947 16.6767 7.76415 16.8003 7.76415 16.9366C7.76415 17.0729 7.81947 17.1965 7.90817 17.2852C7.99732 17.3744 8.12031 17.4294 8.25656 17.4294C8.3928 17.4294 8.51625 17.3744 8.6054 17.2852C8.6941 17.1965 8.74942 17.0729 8.74942 16.9366C8.74942 16.8003 8.6941 16.6767 8.6054 16.5875Z" fill="#C41E0F"/>
<path d="M7.57389 17.1274H0.0341797V16.7458H7.57389V17.1274Z" fill="#C41E0F"/>
<path d="M5.63131 19.399C5.8718 19.399 6.08988 19.4969 6.24808 19.6548L6.24899 19.6557C6.40718 19.814 6.50502 20.0322 6.50502 20.2729C6.50502 20.514 6.40718 20.7323 6.24899 20.8906L6.24808 20.891C6.08988 21.0493 5.8718 21.1472 5.63131 21.1472C5.39082 21.1472 5.17274 21.0493 5.01455 20.891L5.01363 20.8906C4.8559 20.7323 4.75806 20.514 4.75806 20.2729C4.75806 20.0322 4.8559 19.814 5.01363 19.6557L5.01455 19.6548C5.17274 19.4969 5.39082 19.399 5.63131 19.399ZM5.98016 19.9243C5.891 19.835 5.76756 19.7801 5.63131 19.7801C5.49507 19.7801 5.37162 19.835 5.28292 19.9243C5.19377 20.0135 5.13891 20.1366 5.13891 20.2729C5.13891 20.4092 5.19377 20.5328 5.28292 20.622C5.37162 20.7108 5.49507 20.7657 5.63131 20.7657C5.76756 20.7657 5.891 20.7108 5.98016 20.622C6.06885 20.5328 6.12372 20.4092 6.12372 20.2729C6.12372 20.1366 6.06885 20.0135 5.98016 19.9243Z" fill="#C41E0F"/>
<path d="M4.9995 20.4637H0V20.0826H4.9995V20.4637Z" fill="#C41E0F"/>
<path d="M0.0253906 23.4491H7.75575V21.4442L16.5811 12.4945V4.65469H16.962V12.6496L8.13706 21.5993V23.8302H0.0253906V23.4491Z" fill="#C41E0F"/>
<path d="M16.8652 3.12698C17.1057 3.12698 17.3242 3.22489 17.4824 3.38274L17.4829 3.38366C17.6411 3.54196 17.7389 3.7602 17.7389 4.00086C17.7389 4.24198 17.6411 4.46022 17.4829 4.61853L17.4824 4.61899C17.3242 4.77729 17.1057 4.8752 16.8652 4.8752C16.6247 4.8752 16.4066 4.77729 16.2484 4.61899L16.2475 4.61853C16.0898 4.46022 15.9919 4.24198 15.9919 4.00086C15.9919 3.7602 16.0898 3.54196 16.2475 3.38366L16.2484 3.38274C16.4066 3.22489 16.6247 3.12698 16.8652 3.12698ZM17.214 3.65223C17.1249 3.56301 17.0014 3.50811 16.8652 3.50811C16.729 3.50811 16.606 3.56301 16.5168 3.65223C16.4277 3.74145 16.3728 3.86452 16.3728 4.00086C16.3728 4.13721 16.4277 4.26074 16.5168 4.34996C16.606 4.43872 16.729 4.49362 16.8652 4.49362C17.0014 4.49362 17.1249 4.43872 17.214 4.34996C17.3027 4.26074 17.3576 4.13721 17.3576 4.00086C17.3576 3.86452 17.3027 3.74145 17.214 3.65223Z" fill="#C41E0F"/>
<path d="M0.0446777 26.8814H3.43528L6.40023 29.8394H7.92957V30.2205H6.24433L3.27983 27.2626H0.0446777V26.8814Z" fill="#C41E0F"/>
<path d="M8.65618 29.2075C8.89667 29.2075 9.11476 29.3054 9.27295 29.4637L9.27386 29.4642C9.4316 29.6225 9.52944 29.8407 9.52944 30.0819C9.52944 30.3225 9.4316 30.5408 9.27386 30.6991L9.27295 30.6995C9.11476 30.8578 8.89667 30.9557 8.65618 30.9557C8.41569 30.9557 8.19761 30.8578 8.03942 30.6995L8.0385 30.6991C7.88031 30.5408 7.78247 30.3225 7.78247 30.0819C7.78247 29.8407 7.88031 29.6225 8.0385 29.4642L8.03942 29.4637C8.19761 29.3054 8.41569 29.2075 8.65618 29.2075ZM9.00457 29.7328C8.91587 29.644 8.79243 29.5886 8.65618 29.5886C8.51994 29.5886 8.39649 29.644 8.30734 29.7328C8.21864 29.822 8.16378 29.9451 8.16378 30.0819C8.16378 30.2182 8.21864 30.3413 8.30734 30.4305C8.39649 30.5193 8.51994 30.5746 8.65618 30.5746C8.79243 30.5746 8.91587 30.5193 9.00457 30.4305C9.09372 30.3413 9.14859 30.2182 9.14859 30.0819C9.14859 29.9451 9.09372 29.822 9.00457 29.7328Z" fill="#C41E0F"/>
<path d="M3.63648 23.466L7.12904 26.9789H9.80641L10.9709 28.1131L10.7057 28.3854L9.65325 27.36H6.97268L3.36719 23.7341L3.63648 23.466Z" fill="#C41E0F"/>
<path d="M11.3244 27.9077C11.5649 27.9077 11.7835 28.0056 11.9412 28.1639L11.9421 28.1648C12.1003 28.3232 12.1981 28.5414 12.1981 28.7821C12.1981 29.0227 12.1003 29.241 11.9421 29.3993L11.9412 29.4002C11.7835 29.558 11.5649 29.6559 11.3244 29.6559C11.0839 29.6559 10.8659 29.558 10.7077 29.4002L10.7067 29.3993C10.549 29.241 10.4512 29.0227 10.4512 28.7821C10.4512 28.5414 10.549 28.3232 10.7067 28.1648L10.7077 28.1639C10.8659 28.0056 11.0839 27.9077 11.3244 27.9077ZM11.6733 28.433C11.5841 28.3442 11.4607 28.2893 11.3244 28.2893C11.1882 28.2893 11.0647 28.3442 10.976 28.433C10.8869 28.5222 10.832 28.6457 10.832 28.7821C10.832 28.9184 10.8869 29.0419 10.976 29.1307C11.0647 29.2199 11.1882 29.2748 11.3244 29.2748C11.4607 29.2748 11.5841 29.2199 11.6733 29.1307C11.762 29.0419 11.8168 28.9184 11.8168 28.7821C11.8168 28.6457 11.762 28.5222 11.6733 28.433Z" fill="#C41E0F"/>
<path d="M10.0122 22.9933C10.2527 22.9933 10.4712 23.0913 10.6289 23.2491L10.6298 23.25C10.788 23.4083 10.8859 23.6266 10.8859 23.8672C10.8859 24.1079 10.788 24.3261 10.6298 24.4844L10.6289 24.4854C10.4712 24.6437 10.2527 24.7416 10.0122 24.7416C9.77168 24.7416 9.5536 24.6437 9.39541 24.4854L9.39449 24.4844C9.23676 24.3261 9.13892 24.1079 9.13892 23.8672C9.13892 23.6266 9.23676 23.4083 9.39449 23.25L9.39541 23.2491C9.5536 23.0913 9.77168 22.9933 10.0122 22.9933ZM10.361 23.5186C10.2719 23.4294 10.1484 23.3745 10.0122 23.3745C9.87592 23.3745 9.75248 23.4294 9.66378 23.5186C9.57463 23.6074 9.51976 23.7309 9.51976 23.8672C9.51976 24.0036 9.57463 24.1271 9.66378 24.2163C9.75248 24.3051 9.87592 24.36 10.0122 24.36C10.1484 24.36 10.2719 24.3051 10.361 24.2163C10.4497 24.1271 10.5046 24.0036 10.5046 23.8672C10.5046 23.7309 10.4497 23.6074 10.361 23.5186Z" fill="#C41E0F"/>
<path d="M9.8457 23.1841V21.6766L18.3922 13.0096L18.3885 7.00957L19.6486 5.83601V3.58588H20.0294V6.00072L18.7684 7.17565L18.7716 13.1661L10.2266 21.8317V23.1841H9.8457Z" fill="#C41E0F"/>
<path d="M19.9038 1.98776C20.1443 1.98776 20.3628 2.08567 20.5205 2.24352L20.5215 2.24444C20.6796 2.40274 20.7775 2.62098 20.7775 2.86164C20.7775 3.1023 20.6796 3.32055 20.5215 3.47885L20.5205 3.47977C20.3628 3.63761 20.1443 3.73598 19.9038 3.73598C19.6633 3.73598 19.4452 3.63761 19.287 3.47977L19.2861 3.47885C19.1284 3.32055 19.0305 3.1023 19.0305 2.86164C19.0305 2.62098 19.1284 2.40274 19.2861 2.24444L19.287 2.24352C19.4452 2.08567 19.6633 1.98776 19.9038 1.98776ZM20.2526 2.51255C20.1635 2.42379 20.04 2.36888 19.9038 2.36888C19.7675 2.36888 19.6441 2.42379 19.5554 2.51255C19.4662 2.60177 19.4114 2.7253 19.4114 2.86164C19.4114 2.99799 19.4662 3.12152 19.5554 3.21074C19.6441 3.2995 19.7675 3.3544 19.9038 3.3544C20.04 3.3544 20.1635 3.2995 20.2526 3.21074C20.3413 3.12152 20.3962 2.99799 20.3962 2.86164C20.3962 2.7253 20.3413 2.60177 20.2526 2.51255Z" fill="#C41E0F"/>
<path d="M24.3769 4.24794L21.1802 7.47535L21.1834 14.078L13.9102 21.4707L13.9148 32.601L13.6555 33.0567L13.4009 32.736L13.5353 32.4999L13.5307 21.3147L20.8039 13.9219L20.8002 7.31888L24.1076 3.97983L24.3769 4.24794Z" fill="#C41E0F"/>
<path d="M24.7756 2.71841C25.0161 2.71841 25.2341 2.81633 25.3923 2.97417L25.3932 2.97509C25.551 3.13339 25.6488 3.35163 25.6488 3.5923C25.6488 3.83296 25.551 4.05165 25.3932 4.2095L25.3923 4.21042C25.2341 4.36872 25.0161 4.46663 24.7756 4.46663C24.5351 4.46663 24.3165 4.36872 24.1588 4.21042L24.1579 4.2095C23.9997 4.05165 23.9019 3.83296 23.9019 3.5923C23.9019 3.35163 23.9997 3.13339 24.1579 2.97509L24.1588 2.97417C24.3165 2.81633 24.5351 2.71841 24.7756 2.71841ZM25.124 3.24366C25.0353 3.15444 24.9118 3.09954 24.7756 3.09954C24.6393 3.09954 24.5159 3.15444 24.4267 3.24366C24.338 3.33242 24.2832 3.45595 24.2832 3.5923C24.2832 3.72864 24.338 3.85217 24.4267 3.94139C24.5159 4.03015 24.6393 4.08505 24.7756 4.08505C24.9118 4.08505 25.0353 4.03015 25.124 3.94139C25.2131 3.85217 25.268 3.72864 25.268 3.5923C25.268 3.45595 25.2131 3.33242 25.124 3.24366Z" fill="#C41E0F"/>
<path d="M26.1496 7.15873L23.9463 9.29585L23.95 14.2335L19.2486 19.054L18.9761 18.7887L23.5705 14.0784L23.5668 9.13435L25.8848 6.88605L26.1496 7.15873Z" fill="#C41E0F"/>
<path d="M26.5861 5.6402C26.8266 5.6402 27.0447 5.73811 27.2029 5.89641L27.2038 5.89733C27.3615 6.05563 27.4594 6.27388 27.4594 6.51454C27.4594 6.7552 27.3615 6.97344 27.2038 7.13174L27.2029 7.13266C27.0447 7.29051 26.8266 7.38842 26.5861 7.38842C26.3456 7.38842 26.1275 7.29051 25.9693 7.13266L25.9684 7.13174C25.8102 6.97344 25.7124 6.7552 25.7124 6.51454C25.7124 6.27388 25.8102 6.05563 25.9684 5.89733L25.9693 5.89641C26.1275 5.73811 26.3456 5.6402 26.5861 5.6402ZM26.935 6.16544C26.8458 6.07668 26.7224 6.02178 26.5861 6.02178C26.4499 6.02178 26.3264 6.07668 26.2373 6.16544C26.1486 6.25466 26.0937 6.37819 26.0937 6.51454C26.0937 6.65088 26.1486 6.77441 26.2373 6.86363C26.3264 6.95239 26.4499 7.0073 26.5861 7.0073C26.7224 7.0073 26.8458 6.95239 26.935 6.86363C27.0237 6.77441 27.0785 6.65088 27.0785 6.51454C27.0785 6.37819 27.0237 6.25466 26.935 6.16544Z" fill="#C41E0F"/>
<path d="M18.5353 18.548C18.7758 18.548 18.9939 18.6459 19.1521 18.8038L19.153 18.8047C19.3107 18.963 19.4086 19.1813 19.4086 19.4219C19.4086 19.663 19.3107 19.8813 19.153 20.0396L19.1521 20.04C18.9939 20.1983 18.7758 20.2963 18.5353 20.2963C18.2948 20.2963 18.0763 20.1983 17.9186 20.04L17.9177 20.0396C17.7595 19.8813 17.6616 19.663 17.6616 19.4219C17.6616 19.1813 17.7595 18.963 17.9177 18.8047L17.9186 18.8038C18.0763 18.6459 18.2948 18.548 18.5353 18.548ZM18.8837 19.0733C18.795 18.9845 18.6716 18.9292 18.5353 18.9292C18.3991 18.9292 18.2756 18.9845 18.1865 19.0733C18.0978 19.1625 18.0429 19.2856 18.0429 19.4219C18.0429 19.5583 18.0978 19.6818 18.1865 19.771C18.2756 19.8598 18.3991 19.9147 18.5353 19.9147C18.6716 19.9147 18.795 19.8598 18.8837 19.771C18.9729 19.6818 19.0277 19.5583 19.0277 19.4219C19.0277 19.2856 18.9729 19.1625 18.8837 19.0733Z" fill="#C41E0F"/>
<path d="M26.6424 11.3451L26.6456 16.1002L17.2643 25.6036L16.9937 25.3373L26.2662 15.9442L26.2629 11.3451H26.6424Z" fill="#C41E0F"/>
<path d="M26.4907 9.8577C26.7311 9.8577 26.9492 9.95561 27.1074 10.1139L27.1079 10.1144C27.2661 10.2727 27.3639 10.4909 27.3639 10.732C27.3639 10.9727 27.2661 11.1909 27.1079 11.3492L27.1074 11.3497C26.9492 11.508 26.7311 11.6059 26.4907 11.6059C26.2497 11.6059 26.0316 11.508 25.8734 11.3497L25.873 11.3492C25.7148 11.1909 25.6169 10.9727 25.6169 10.732C25.6169 10.4909 25.7148 10.2727 25.873 10.1144L25.8734 10.1139C26.0316 9.95561 26.2497 9.8577 26.4907 9.8577ZM26.839 10.3829C26.7499 10.2942 26.6269 10.2388 26.4907 10.2388C26.354 10.2388 26.231 10.2942 26.1418 10.3829C26.0531 10.4722 25.9978 10.5952 25.9978 10.732C25.9978 10.8684 26.0531 10.9915 26.1418 11.0807C26.231 11.1694 26.354 11.2248 26.4907 11.2248C26.6269 11.2248 26.7499 11.1694 26.839 11.0807C26.9277 10.9915 26.9831 10.8684 26.9831 10.732C26.9831 10.5952 26.9277 10.4722 26.839 10.3829Z" fill="#C41E0F"/>
<path d="M16.6518 25.1492C16.8923 25.1492 17.1108 25.2471 17.2686 25.4054L17.2695 25.4059C17.4277 25.5642 17.5255 25.7825 17.5255 26.0236C17.5255 26.2642 17.4277 26.4825 17.2695 26.6408L17.2686 26.6417C17.1108 26.7995 16.8923 26.8975 16.6518 26.8975C16.4113 26.8975 16.1932 26.7995 16.0351 26.6417L16.0341 26.6408C15.8764 26.4825 15.7786 26.2642 15.7786 26.0236C15.7786 25.7825 15.8764 25.5642 16.0341 25.4059L16.0351 25.4054C16.1932 25.2471 16.4113 25.1492 16.6518 25.1492ZM17.0007 25.6745C16.9115 25.5857 16.7881 25.5308 16.6518 25.5308C16.5156 25.5308 16.3921 25.5857 16.3034 25.6745C16.2143 25.7637 16.1594 25.8872 16.1594 26.0236C16.1594 26.1599 16.2143 26.283 16.3034 26.3722C16.3921 26.461 16.5156 26.5163 16.6518 26.5163C16.7881 26.5163 16.9115 26.461 17.0007 26.3722C17.0894 26.283 17.1442 26.1599 17.1442 26.0236C17.1442 25.8872 17.0894 25.7637 17.0007 25.6745Z" fill="#C41E0F"/>
<path d="M16.6518 33.9841C16.8923 33.9841 17.1108 34.082 17.2686 34.2399L17.2695 34.2408C17.4277 34.3991 17.5255 34.6174 17.5255 34.858C17.5255 35.0991 17.4277 35.3174 17.2695 35.4757L17.2686 35.4761C17.1108 35.6344 16.8923 35.7324 16.6518 35.7324C16.4113 35.7324 16.1932 35.6344 16.0351 35.4761L16.0341 35.4757C15.8764 35.3174 15.7786 35.0991 15.7786 34.858C15.7786 34.6174 15.8764 34.3991 16.0341 34.2408L16.0351 34.2399C16.1932 34.082 16.4113 33.9841 16.6518 33.9841ZM17.0007 34.5094C16.9115 34.4206 16.7881 34.3653 16.6518 34.3653C16.5156 34.3653 16.3921 34.4206 16.3034 34.5094C16.2143 34.5986 16.1594 34.7217 16.1594 34.858C16.1594 34.9944 16.2143 35.1179 16.3034 35.2071C16.3921 35.2959 16.5156 35.3508 16.6518 35.3508C16.7881 35.3508 16.9115 35.2959 17.0007 35.2071C17.0894 35.1179 17.1442 34.9944 17.1442 34.858C17.1442 34.7217 17.0894 34.5986 17.0007 34.5094Z" fill="#C41E0F"/>
<path d="M16.4612 34.1749V26.7067H16.8425V34.1749H16.4612Z" fill="#C41E0F"/>
<path d="M16.6518 38.6624C16.8923 38.6624 17.1108 38.7603 17.2686 38.9186L17.2695 38.919C17.4277 39.0773 17.5255 39.2956 17.5255 39.5367C17.5255 39.7774 17.4277 39.9956 17.2695 40.1539L17.2686 40.1548C17.1108 40.3127 16.8923 40.4106 16.6518 40.4106C16.4113 40.4106 16.1932 40.3127 16.0351 40.1548L16.0341 40.1539C15.8764 39.9956 15.7786 39.7774 15.7786 39.5367C15.7786 39.2956 15.8764 39.0773 16.0341 38.919L16.0351 38.9186C16.1932 38.7603 16.4113 38.6624 16.6518 38.6624ZM17.0007 39.1876C16.9115 39.0988 16.7881 39.0439 16.6518 39.0439C16.5156 39.0439 16.3921 39.0988 16.3034 39.1876C16.2143 39.2768 16.1594 39.4003 16.1594 39.5367C16.1594 39.673 16.2143 39.7961 16.3034 39.8853C16.3921 39.9741 16.5156 40.0295 16.6518 40.0295C16.7881 40.0295 16.9115 39.9741 17.0007 39.8853C17.0894 39.7961 17.1442 39.673 17.1442 39.5367C17.1442 39.4003 17.0894 39.2768 17.0007 39.1876Z" fill="#C41E0F"/>
<path d="M28.9292 17.1983L20.4316 25.8058V36.0618L17.309 39.2288L17.0378 38.9625L20.0508 35.9071V25.6511L28.6585 16.9315L28.9292 17.1983Z" fill="#C41E0F"/>
<path d="M29.3224 15.7713C29.5629 15.7713 29.781 15.8692 29.9392 16.0275L29.9401 16.0279C30.0979 16.1862 30.1957 16.4045 30.1957 16.6452C30.1957 16.8863 30.0979 17.1045 29.9401 17.2628L29.9392 17.2633C29.781 17.4216 29.5629 17.5195 29.3224 17.5195C29.082 17.5195 28.8634 17.4216 28.7057 17.2633L28.7048 17.2628C28.5466 17.1045 28.4487 16.8863 28.4487 16.6452C28.4487 16.4045 28.5466 16.1862 28.7048 16.0279L28.7057 16.0275C28.8634 15.8692 29.082 15.7713 29.3224 15.7713ZM29.6708 16.2965C29.5821 16.2078 29.4587 16.1524 29.3224 16.1524C29.1862 16.1524 29.0628 16.2078 28.9736 16.2965C28.8849 16.3857 28.83 16.5088 28.83 16.6452C28.83 16.7815 28.8849 16.905 28.9736 16.9942C29.0628 17.083 29.1862 17.1379 29.3224 17.1379C29.4587 17.1379 29.5821 17.083 29.6708 16.9942C29.76 16.905 29.8148 16.7815 29.8148 16.6452C29.8148 16.5088 29.76 16.3857 29.6708 16.2965Z" fill="#C41E0F"/>
<path d="M31.5762 20.9917L22.552 30.1313V32.9103H22.1711V29.9766L31.3056 20.7254L31.5762 20.9917Z" fill="#C41E0F"/>
<path d="M22.3674 32.7287C22.6079 32.7287 22.8259 32.8266 22.9841 32.9844L22.985 32.9853C23.1428 33.1436 23.2406 33.3619 23.2406 33.6025C23.2406 33.8432 23.1428 34.0615 22.985 34.2198L22.9841 34.2207C22.8259 34.379 22.6079 34.4769 22.3674 34.4769C22.1264 34.4769 21.9083 34.379 21.7501 34.2207L21.7497 34.2198C21.5915 34.0615 21.4937 33.8432 21.4937 33.6025C21.4937 33.3619 21.5915 33.1436 21.7497 32.9853L21.7501 32.9844C21.9083 32.8266 22.1264 32.7287 22.3674 32.7287ZM22.7158 33.2539C22.6266 33.1647 22.5036 33.1098 22.3674 33.1098C22.2311 33.1098 22.1077 33.1647 22.0185 33.2539C21.9298 33.3427 21.875 33.4662 21.875 33.6025C21.875 33.7389 21.9298 33.8624 22.0185 33.9516C22.1077 34.0404 22.2311 34.0953 22.3674 34.0953C22.5036 34.0953 22.6266 34.0404 22.7158 33.9516C22.8049 33.8624 22.8598 33.7389 22.8598 33.6025C22.8598 33.4662 22.8049 33.3427 22.7158 33.2539Z" fill="#C41E0F"/>
<path d="M32.0151 19.4374C32.2556 19.4374 32.4736 19.5354 32.6318 19.6932L32.6323 19.6941C32.7905 19.8524 32.8883 20.0707 32.8883 20.3113C32.8883 20.5524 32.7905 20.7707 32.6323 20.929L32.6318 20.9294C32.4736 21.0877 32.2556 21.1857 32.0151 21.1857C31.7741 21.1857 31.556 21.0877 31.3978 20.9294L31.3974 20.929C31.2392 20.7707 31.1414 20.5524 31.1414 20.3113C31.1414 20.0707 31.2392 19.8524 31.3974 19.6941L31.3978 19.6932C31.556 19.5354 31.7741 19.4374 32.0151 19.4374ZM32.3635 19.9627C32.2743 19.8735 32.1513 19.8186 32.0151 19.8186C31.8784 19.8186 31.7554 19.8735 31.6662 19.9627C31.5775 20.0519 31.5222 20.175 31.5222 20.3113C31.5222 20.4477 31.5775 20.5712 31.6662 20.6604C31.7554 20.7492 31.8784 20.8041 32.0151 20.8041C32.1513 20.8041 32.2743 20.7492 32.3635 20.6604C32.4522 20.5712 32.5075 20.4477 32.5075 20.3113C32.5075 20.175 32.4522 20.0519 32.3635 19.9627Z" fill="#C41E0F"/>
<path d="M20.1748 45.1982V39.9233L24.5283 35.4574V32.3173L29.387 27.4547L29.6562 27.7247L24.9091 32.4752V35.6111L20.5557 40.077V45.1982H20.1748Z" fill="#C41E0F"/>
<path d="M30.0442 26.191C30.2846 26.191 30.5032 26.289 30.6609 26.4473L30.6618 26.4477C30.82 26.606 30.9179 26.8243 30.9179 27.0654C30.9179 27.306 30.82 27.5243 30.6618 27.6826L30.6609 27.683C30.5032 27.8413 30.2846 27.9393 30.0442 27.9393C29.8037 27.9393 29.5856 27.8413 29.4274 27.683L29.4265 27.6826C29.2687 27.5243 29.1709 27.306 29.1709 27.0654C29.1709 26.8243 29.2687 26.606 29.4265 26.4477L29.4274 26.4473C29.5856 26.289 29.8037 26.191 30.0442 26.191ZM30.393 26.7163C30.3038 26.6275 30.1804 26.5722 30.0442 26.5722C29.9079 26.5722 29.7845 26.6275 29.6958 26.7163C29.6066 26.8055 29.5517 26.9286 29.5517 27.0654C29.5517 27.2017 29.6066 27.3248 29.6958 27.414C29.7845 27.5028 29.9079 27.5581 30.0442 27.5581C30.1804 27.5581 30.3038 27.5028 30.393 27.414C30.4817 27.3248 30.5366 27.2017 30.5366 27.0654C30.5366 26.9286 30.4817 26.8055 30.393 26.7163Z" fill="#C41E0F"/>
<path d="M25.1287 41.4981V38.8458L26.7138 37.2596V32.4331L35.4966 23.5094V17.5689H35.8775V23.6641L27.0946 32.5877V37.4174L25.5095 39.0037V41.4981H25.1287Z" fill="#C41E0F"/>
<path d="M35.6699 15.9753C35.9103 15.9753 36.1284 16.0733 36.2866 16.2316L36.2875 16.232C36.4453 16.3903 36.5431 16.6086 36.5431 16.8497C36.5431 17.0903 36.4453 17.3086 36.2875 17.4669L36.2866 17.4678C36.1284 17.6256 35.9103 17.7236 35.6699 17.7236C35.4289 17.7236 35.2108 17.6256 35.0526 17.4678L35.0522 17.4669C34.894 17.3086 34.7961 17.0903 34.7961 16.8497C34.7961 16.6086 34.894 16.3903 35.0522 16.232L35.0526 16.2316C35.2108 16.0733 35.4289 15.9753 35.6699 15.9753ZM36.0182 16.5006C35.9291 16.4118 35.8061 16.3569 35.6699 16.3569C35.5336 16.3569 35.4102 16.4118 35.321 16.5006C35.2323 16.5898 35.1774 16.7133 35.1774 16.8497C35.1774 16.986 35.2323 17.1091 35.321 17.1983C35.4102 17.2871 35.5336 17.3424 35.6699 17.3424C35.8061 17.3424 35.9291 17.2871 36.0182 17.1983C36.1069 17.1091 36.1623 16.986 36.1623 16.8497C36.1623 16.7133 36.1069 16.5898 36.0182 16.5006Z" fill="#C41E0F"/>
<path d="M25.3112 41.3728C25.5517 41.3728 25.7703 41.4707 25.928 41.629L25.9289 41.6299C26.0871 41.7882 26.185 42.0065 26.185 42.2471C26.185 42.4878 26.0871 42.706 25.9289 42.8643L25.928 42.8652C25.7703 43.0231 25.5517 43.121 25.3112 43.121C25.0708 43.121 24.8527 43.0231 24.6945 42.8652L24.6936 42.8643C24.5358 42.706 24.438 42.4878 24.438 42.2471C24.438 42.0065 24.5358 41.7882 24.6936 41.6299L24.6945 41.629C24.8527 41.4707 25.0708 41.3728 25.3112 41.3728ZM25.6601 41.898C25.5709 41.8093 25.4475 41.7544 25.3112 41.7544C25.175 41.7544 25.052 41.8093 24.9629 41.898C24.8737 41.9872 24.8188 42.1108 24.8188 42.2471C24.8188 42.3835 24.8737 42.507 24.9629 42.5957C25.052 42.685 25.175 42.7399 25.3112 42.7399C25.4475 42.7399 25.5709 42.685 25.6601 42.5957C25.7488 42.507 25.8036 42.3835 25.8036 42.2471C25.8036 42.1108 25.7488 41.9872 25.6601 41.898Z" fill="#C41E0F"/>
<path d="M36.0273 27.5394C36.2678 27.5394 36.4858 27.6373 36.644 27.7956L36.6445 27.7965C36.8027 27.9548 36.9005 28.1731 36.9005 28.4137C36.9005 28.6544 36.8027 28.8726 36.6445 29.0309L36.644 29.0319C36.4858 29.1897 36.2678 29.2876 36.0273 29.2876C35.7863 29.2876 35.5682 29.1897 35.4101 29.0319L35.4096 29.0309C35.2514 28.8726 35.1536 28.6544 35.1536 28.4137C35.1536 28.1731 35.2514 27.9548 35.4096 27.7965L35.4101 27.7956C35.5682 27.6373 35.7863 27.5394 36.0273 27.5394ZM36.3757 28.0646C36.2865 27.9759 36.1635 27.921 36.0273 27.921C35.8906 27.921 35.7676 27.9759 35.6784 28.0646C35.5897 28.1539 35.5344 28.2774 35.5344 28.4137C35.5344 28.5501 35.5897 28.6736 35.6784 28.7628C35.7676 28.8516 35.8906 28.9065 36.0273 28.9065C36.1635 28.9065 36.2865 28.8516 36.3757 28.7628C36.4644 28.6736 36.5197 28.5501 36.5197 28.4137C36.5197 28.2774 36.4644 28.1539 36.3757 28.0646Z" fill="#C41E0F"/>
<path d="M35.7206 29.0039L32.517 32.3109H31.988L35.4481 28.739L35.7206 29.0039Z" fill="#C41E0F"/>
<path fill-rule="evenodd" clip-rule="evenodd" d="M13.4009 32.736C13.635 32.7008 13.7227 32.8142 13.6555 33.0567C13.608 33.1226 13.5536 33.2127 13.4919 33.328C13.501 33.0956 13.4841 32.9012 13.4009 32.736Z" fill="#C41E0F"/>
<path fill-rule="evenodd" clip-rule="evenodd" d="M15.8511 27.35H17.3667L17.9057 30.1432C17.9204 30.269 17.9972 30.3953 18.1366 30.5261C18.2715 30.6574 18.3867 30.7531 18.4832 30.8185C18.7186 30.9901 18.9834 31.1511 19.2627 31.3025C19.5462 31.4535 19.8397 31.5899 20.1428 31.7061C20.4459 31.8269 20.7637 31.9175 21.0911 31.9934C21.1889 32.014 21.2872 32.0318 21.3855 32.0465V24.4854C21.1345 24.3948 20.8867 24.3033 20.6384 24.2145C20.2873 24.0882 19.9458 23.9574 19.6088 23.811C18.5746 23.3621 17.7613 22.7321 17.1742 21.9154C16.5826 21.1038 16.2891 20.1155 16.2891 18.9612C16.2891 18.1898 16.4477 17.4737 16.77 16.8085C17.0878 16.1478 17.5304 15.5732 18.0886 15.0891C18.6514 14.6055 19.3107 14.2271 20.066 13.9599C20.4871 13.8112 20.9274 13.7028 21.3855 13.6364V11.6416H23.5005V13.5879C23.6793 13.5998 23.8562 13.6145 24.0309 13.6323C24.5214 13.6776 24.9928 13.7481 25.45 13.8341C25.9022 13.9196 26.3402 14.0153 26.7636 14.1214C27.1869 14.2271 27.5961 14.3332 27.9907 14.4289V19.3642H26.4892L25.9744 16.738C25.9552 16.6117 25.883 16.4859 25.7486 16.3647C25.6183 16.2439 25.498 16.1478 25.397 16.0773C25.2434 15.9616 25.0701 15.8504 24.8726 15.7498C24.6755 15.6491 24.4542 15.5581 24.2183 15.4775C23.9929 15.402 23.7552 15.3398 23.5005 15.2945V22.2297C23.81 22.346 24.1278 22.4667 24.4492 22.5958C24.8003 22.7371 25.1711 22.8886 25.5657 23.0597C25.9936 23.2464 26.4124 23.4783 26.8212 23.7455C27.2304 24.0127 27.6007 24.3454 27.9326 24.7333C28.26 25.1218 28.5247 25.5807 28.7217 26.105C28.9193 26.6289 29.0153 27.2443 29.0153 27.9548C29.0153 28.6859 28.8809 29.402 28.6111 30.0974C28.3418 30.7933 27.9184 31.4082 27.341 31.9426C26.7636 32.4821 26.0179 32.9158 25.1085 33.2434C24.6239 33.4182 24.0871 33.5454 23.5005 33.6263V35.5338H21.3855V33.7206C21.0824 33.7046 20.7696 33.6735 20.451 33.6268C19.97 33.5508 19.4744 33.4603 18.9692 33.3445C18.464 33.2233 17.9588 33.0924 17.4485 32.946C16.9388 32.795 16.4335 32.6486 15.9283 32.5072L15.8511 27.35ZM23.5005 31.9605C23.634 31.9321 23.7643 31.8992 23.891 31.8621C24.4254 31.7061 24.8776 31.4792 25.2434 31.1818C25.6087 30.8889 25.8926 30.5261 26.0901 30.1079C26.2871 29.6843 26.3836 29.2103 26.3836 28.6809C26.3836 27.8894 26.1573 27.2342 25.7051 26.7099C25.253 26.1855 24.6467 25.7568 23.8814 25.4242C23.7547 25.3684 23.6272 25.3139 23.5005 25.2618V31.9605ZM21.3855 15.3307C21.2401 15.3599 21.0997 15.3956 20.9658 15.4373C20.4894 15.5782 20.0852 15.7749 19.7583 16.022C19.431 16.2741 19.1809 16.5664 19.0076 16.8991C18.8343 17.2367 18.7525 17.6 18.7525 17.993C18.7525 18.3412 18.7909 18.6839 18.8727 19.0115C18.9546 19.3441 19.094 19.6566 19.2961 19.9545C19.4982 20.2518 19.7679 20.5241 20.1044 20.7812C20.4395 21.037 20.8698 21.2625 21.3855 21.4583V15.3307Z" fill="#C41E0F"/>
<path fill-rule="evenodd" clip-rule="evenodd" d="M14.9158 26.7428H16.4314L16.9704 29.5356C16.9846 29.6614 17.0619 29.7877 17.2013 29.9185C17.3362 30.0499 17.4514 30.1455 17.5479 30.2114C17.7833 30.3825 18.0481 30.544 18.3269 30.695C18.6109 30.8464 18.9044 30.9823 19.2075 31.0985C19.5106 31.2193 19.8284 31.3103 20.1553 31.3858C20.2531 31.4064 20.3514 31.4243 20.4502 31.4389V23.8778C20.1987 23.7872 19.9509 23.6957 19.7031 23.6069C19.352 23.4807 19.0105 23.3498 18.6735 23.2034C17.6393 22.755 16.826 22.1245 16.2389 21.3078C15.6473 20.4962 15.3538 19.5084 15.3538 18.3536C15.3538 17.5822 15.5124 16.8666 15.8347 16.2009C16.1525 15.5407 16.5951 14.966 17.1533 14.482C17.7161 13.9979 18.3754 13.62 19.1307 13.3528C19.5518 13.2036 19.9921 13.0957 20.4502 13.0289V11.034H22.5647V12.9808C22.744 12.9923 22.9209 13.0069 23.0951 13.0247C23.5861 13.0705 24.0575 13.1409 24.5147 13.2265C24.9669 13.3121 25.4049 13.4081 25.8283 13.5138C26.2516 13.62 26.6604 13.7257 27.0549 13.8213V18.7571H25.5539L25.0391 16.1304C25.0199 16.0042 24.9477 15.8783 24.8128 15.7576C24.683 15.6363 24.5627 15.5407 24.4617 15.4702C24.3076 15.354 24.1348 15.2433 23.9373 15.1422C23.7402 15.0415 23.5189 14.9509 23.283 14.87C23.0576 14.7945 22.8194 14.7322 22.5647 14.6874V21.6222C22.8747 21.7384 23.1925 21.8592 23.5139 21.9886C23.865 22.1296 24.2358 22.281 24.6304 22.4526C25.0583 22.6388 25.4771 22.8708 25.8859 23.138C26.2951 23.4052 26.6654 23.7378 26.9973 24.1262C27.3247 24.5142 27.5894 24.9731 27.7864 25.4974C27.984 26.0218 28.08 26.6367 28.08 27.3477C28.08 28.0788 27.9451 28.7944 27.6758 29.4903C27.4065 30.1857 26.9831 30.8011 26.4057 31.3355C25.8283 31.8749 25.0826 32.3082 24.1732 32.6363C23.6885 32.8106 23.1518 32.9382 22.5647 33.0192V34.9267H20.4502V33.113C20.1471 33.0975 19.8343 33.0659 19.5157 33.0192C19.0342 32.9437 18.5386 32.8527 18.0334 32.7369C17.5282 32.6161 17.023 32.4848 16.5132 32.3389C16.003 32.1874 15.4978 32.041 14.9926 31.9001L14.9158 26.7428ZM22.5647 31.3534C22.6987 31.3245 22.829 31.292 22.9557 31.2545C23.4897 31.0985 23.9423 30.8716 24.3076 30.5742C24.6734 30.2818 24.9573 29.9185 25.1548 29.5004C25.3518 29.0767 25.4483 28.6031 25.4483 28.0738C25.4483 27.2823 25.222 26.6266 24.7698 26.1023C24.3172 25.578 23.711 25.1497 22.9461 24.8166C22.819 24.7608 22.6919 24.7064 22.5647 24.6542V31.3534ZM20.4502 14.7231C20.3048 14.7528 20.1644 14.7881 20.0305 14.8297C19.5541 14.9711 19.1499 15.1673 18.8226 15.4144C18.4957 15.6665 18.2451 15.9589 18.0723 16.292C17.899 16.6296 17.8172 16.9924 17.8172 17.3859C17.8172 17.7336 17.8556 18.0763 17.9374 18.4039C18.0193 18.737 18.1587 19.0495 18.3608 19.3469C18.5629 19.6443 18.8322 19.9165 19.1691 20.1736C19.5042 20.4294 19.9345 20.6554 20.4502 20.8512V14.7231Z" fill="#013D62"/>
</svg>
