<svg width="24" height="25" viewBox="0 0 24 25" fill="none" xmlns="http://www.w3.org/2000/svg">
<path d="M20.7806 13.0307L14.0306 19.7807C13.8899 19.9214 13.699 20.0005 13.5 20.0005C13.301 20.0005 13.1101 19.9214 12.9694 19.7807C12.8286 19.6399 12.7496 19.4491 12.7496 19.2501C12.7496 19.051 12.8286 18.8602 12.9694 18.7194L18.4397 13.2501H3.75C3.55109 13.2501 3.36032 13.171 3.21967 13.0304C3.07902 12.8897 3 12.699 3 12.5001C3 12.3011 3.07902 12.1104 3.21967 11.9697C3.36032 11.8291 3.55109 11.7501 3.75 11.7501H18.4397L12.9694 6.28068C12.8286 6.13995 12.7496 5.94907 12.7496 5.75005C12.7496 5.55103 12.8286 5.36016 12.9694 5.21943C13.1101 5.0787 13.301 4.99963 13.5 4.99963C13.699 4.99963 13.8899 5.0787 14.0306 5.21943L20.7806 11.9694C20.8504 12.0391 20.9057 12.1218 20.9434 12.2128C20.9812 12.3039 21.0006 12.4015 21.0006 12.5001C21.0006 12.5986 20.9812 12.6962 20.9434 12.7873C20.9057 12.8783 20.8504 12.961 20.7806 13.0307Z" fill="#434343"/>
</svg>
