<svg width="24" height="25" viewBox="0 0 24 25" fill="none" xmlns="http://www.w3.org/2000/svg">
<path d="M21.7172 18.7392L18.6056 3.94549C18.5654 3.75203 18.4873 3.56843 18.3759 3.40523C18.2645 3.24203 18.1219 3.10246 17.9564 2.99452C17.7909 2.88659 17.6057 2.81242 17.4114 2.77628C17.2171 2.74014 17.0176 2.74274 16.8244 2.78393L12.4359 3.72705C12.0478 3.81205 11.7089 4.04687 11.4929 4.38044C11.277 4.71401 11.2015 5.11935 11.2828 5.5083L14.3944 20.3021C14.4637 20.6396 14.6471 20.9429 14.9138 21.1611C15.1805 21.3793 15.5142 21.499 15.8588 21.5002C15.9653 21.5 16.0715 21.4887 16.1756 21.4664L20.5641 20.5233C20.9527 20.4381 21.292 20.2028 21.5079 19.8687C21.7239 19.5345 21.7991 19.1286 21.7172 18.7392ZM12.75 5.20174C12.75 5.19612 12.75 5.1933 12.75 5.1933L17.1375 4.2558L17.4497 5.74362L13.0622 6.68768L12.75 5.20174ZM13.3706 8.15205L17.76 7.20987L18.0731 8.70049L13.6875 9.64362L13.3706 8.15205ZM13.9931 11.1117L18.3825 10.1686L19.6294 16.0974L15.24 17.0405L13.9931 11.1117ZM20.25 19.0571L15.8625 19.9946L15.5503 18.5067L19.9378 17.5627L20.25 19.0486C20.25 19.0542 20.25 19.0571 20.25 19.0571ZM9.75 3.50018H5.25C4.85218 3.50018 4.47064 3.65821 4.18934 3.93952C3.90804 4.22082 3.75 4.60235 3.75 5.00018V20.0002C3.75 20.398 3.90804 20.7795 4.18934 21.0608C4.47064 21.3421 4.85218 21.5002 5.25 21.5002H9.75C10.1478 21.5002 10.5294 21.3421 10.8107 21.0608C11.092 20.7795 11.25 20.398 11.25 20.0002V5.00018C11.25 4.60235 11.092 4.22082 10.8107 3.93952C10.5294 3.65821 10.1478 3.50018 9.75 3.50018ZM5.25 5.00018H9.75V6.50018H5.25V5.00018ZM5.25 8.00018H9.75V17.0002H5.25V8.00018ZM9.75 20.0002H5.25V18.5002H9.75V20.0002Z" fill="#434343"/>
</svg>
