<svg width="24" height="25" viewBox="0 0 24 25" fill="none" xmlns="http://www.w3.org/2000/svg">
<path d="M23.25 12.125C23.249 11.1316 22.9667 10.1587 22.4358 9.31903C21.9049 8.47936 21.147 7.80719 20.25 7.38031V7.25C20.2491 6.28364 19.9372 5.34323 19.3603 4.56792C18.7835 3.7926 17.9724 3.22357 17.0471 2.94503C16.1217 2.66648 15.1313 2.69321 14.2223 3.02126C13.3134 3.34931 12.5341 3.96126 12 4.76656C11.4658 3.96126 10.6866 3.34931 9.77761 3.02126C8.86863 2.69321 7.8782 2.66648 6.95286 2.94503C6.02752 3.22357 5.21642 3.7926 4.63959 4.56792C4.06276 5.34323 3.75084 6.28364 3.74997 7.25V7.38031C2.85216 7.80602 2.09359 8.47776 1.56242 9.31749C1.03124 10.1572 0.749268 11.1304 0.749268 12.1241C0.749268 13.1177 1.03124 14.0909 1.56242 14.9306C2.09359 15.7704 2.85216 16.4421 3.74997 16.8678V17C3.75084 17.9664 4.06276 18.9068 4.63959 19.6821C5.21642 20.4574 6.02752 21.0264 6.95286 21.305C7.8782 21.5835 8.86863 21.5568 9.77761 21.2287C10.6866 20.9007 11.4658 20.2887 12 19.4834C12.5341 20.2887 13.3134 20.9007 14.2223 21.2287C15.1313 21.5568 16.1217 21.5835 17.0471 21.305C17.9724 21.0264 18.7835 20.4574 19.3603 19.6821C19.9372 18.9068 20.2491 17.9664 20.25 17V16.8678C21.1469 16.4413 21.9046 15.7694 22.4356 14.9301C22.9665 14.0907 23.2488 13.1182 23.25 12.125ZM8.24997 20C7.51023 19.9999 6.79662 19.7265 6.24618 19.2323C5.69575 18.7381 5.3473 18.058 5.26778 17.3225C5.51032 17.3571 5.75498 17.3746 5.99997 17.375H6.74997C6.94888 17.375 7.13965 17.296 7.2803 17.1553C7.42095 17.0147 7.49997 16.8239 7.49997 16.625C7.49997 16.4261 7.42095 16.2353 7.2803 16.0947C7.13965 15.954 6.94888 15.875 6.74997 15.875H5.99997C5.11456 15.876 4.25734 15.5637 3.58008 14.9934C2.90281 14.4231 2.4492 13.6315 2.29954 12.7588C2.14989 11.8862 2.31384 10.9887 2.76239 10.2253C3.21093 9.4619 3.91512 8.88184 4.75028 8.58781C4.89641 8.53608 5.02292 8.44033 5.1124 8.31374C5.20189 8.18716 5.24995 8.03596 5.24997 7.88094V7.25C5.24997 6.45435 5.56604 5.69129 6.12865 5.12868C6.69126 4.56607 7.45432 4.25 8.24997 4.25C9.04562 4.25 9.80868 4.56607 10.3713 5.12868C10.9339 5.69129 11.25 6.45435 11.25 7.25V13.6494C10.4264 12.9086 9.35765 12.4992 8.24997 12.5C8.05106 12.5 7.86029 12.579 7.71964 12.7197C7.57899 12.8603 7.49997 13.0511 7.49997 13.25C7.49997 13.4489 7.57899 13.6397 7.71964 13.7803C7.86029 13.921 8.05106 14 8.24997 14C9.04562 14 9.80868 14.3161 10.3713 14.8787C10.9339 15.4413 11.25 16.2044 11.25 17C11.25 17.7956 10.9339 18.5587 10.3713 19.1213C9.80868 19.6839 9.04562 20 8.24997 20ZM18 15.875H17.25C17.0511 15.875 16.8603 15.954 16.7196 16.0947C16.579 16.2353 16.5 16.4261 16.5 16.625C16.5 16.8239 16.579 17.0147 16.7196 17.1553C16.8603 17.296 17.0511 17.375 17.25 17.375H18C18.245 17.3746 18.4896 17.3571 18.7322 17.3225C18.6699 17.8988 18.4419 18.4446 18.076 18.8941C17.7101 19.3436 17.2217 19.6774 16.6701 19.8553C16.1184 20.0331 15.5271 20.0474 14.9675 19.8963C14.408 19.7452 13.9041 19.4352 13.517 19.0039C13.1298 18.5726 12.8759 18.0383 12.7859 17.4657C12.6959 16.8931 12.7737 16.3067 13.0099 15.7775C13.2462 15.2482 13.6306 14.7986 14.1169 14.4832C14.6031 14.1677 15.1704 13.9999 15.75 14C15.9489 14 16.1396 13.921 16.2803 13.7803C16.421 13.6397 16.5 13.4489 16.5 13.25C16.5 13.0511 16.421 12.8603 16.2803 12.7197C16.1396 12.579 15.9489 12.5 15.75 12.5C14.6423 12.4992 13.5736 12.9086 12.75 13.6494V7.25C12.75 6.45435 13.066 5.69129 13.6287 5.12868C14.1913 4.56607 14.9543 4.25 15.75 4.25C16.5456 4.25 17.3087 4.56607 17.8713 5.12868C18.4339 5.69129 18.75 6.45435 18.75 7.25V7.88094C18.75 8.03596 18.7981 8.18716 18.8875 8.31374C18.977 8.44033 19.1035 8.53608 19.2497 8.58781C20.0848 8.88184 20.789 9.4619 21.2376 10.2253C21.6861 10.9887 21.8501 11.8862 21.7004 12.7588C21.5507 13.6315 21.0971 14.4231 20.4199 14.9934C19.7426 15.5637 18.8854 15.876 18 15.875ZM19.5 11C19.5 11.1989 19.421 11.3897 19.2803 11.5303C19.1397 11.671 18.9489 11.75 18.75 11.75H18.375C17.4799 11.75 16.6214 11.3944 15.9885 10.7615C15.3556 10.1286 15 9.27011 15 8.375V8C15 7.80109 15.079 7.61032 15.2196 7.46967C15.3603 7.32902 15.5511 7.25 15.75 7.25C15.9489 7.25 16.1396 7.32902 16.2803 7.46967C16.421 7.61032 16.5 7.80109 16.5 8V8.375C16.5 8.87228 16.6975 9.34919 17.0491 9.70083C17.4008 10.0525 17.8777 10.25 18.375 10.25H18.75C18.9489 10.25 19.1397 10.329 19.2803 10.4697C19.421 10.6103 19.5 10.8011 19.5 11ZM5.62497 11.75H5.24997C5.05106 11.75 4.86029 11.671 4.71964 11.5303C4.57899 11.3897 4.49997 11.1989 4.49997 11C4.49997 10.8011 4.57899 10.6103 4.71964 10.4697C4.86029 10.329 5.05106 10.25 5.24997 10.25H5.62497C6.12225 10.25 6.59916 10.0525 6.9508 9.70083C7.30243 9.34919 7.49997 8.87228 7.49997 8.375V8C7.49997 7.80109 7.57899 7.61032 7.71964 7.46967C7.86029 7.32902 8.05106 7.25 8.24997 7.25C8.44888 7.25 8.63965 7.32902 8.7803 7.46967C8.92095 7.61032 8.99997 7.80109 8.99997 8V8.375C8.99997 9.27011 8.64439 10.1286 8.01146 10.7615C7.37852 11.3944 6.52008 11.75 5.62497 11.75Z" fill="#262626"/>
</svg>
