<svg width="24" height="25" viewBox="0 0 24 25" fill="none" xmlns="http://www.w3.org/2000/svg">
<path d="M19.5 5.75H16.9012L15.6234 3.83375C15.555 3.73114 15.4623 3.647 15.3535 3.58879C15.2448 3.53057 15.1233 3.50007 15 3.5H9C8.87665 3.50007 8.75522 3.53057 8.64648 3.58879C8.53773 3.647 8.44502 3.73114 8.37656 3.83375L7.09781 5.75H4.5C3.90326 5.75 3.33097 5.98705 2.90901 6.40901C2.48705 6.83097 2.25 7.40326 2.25 8V18.5C2.25 19.0967 2.48705 19.669 2.90901 20.091C3.33097 20.5129 3.90326 20.75 4.5 20.75H19.5C20.0967 20.75 20.669 20.5129 21.091 20.091C21.5129 19.669 21.75 19.0967 21.75 18.5V8C21.75 7.40326 21.5129 6.83097 21.091 6.40901C20.669 5.98705 20.0967 5.75 19.5 5.75ZM20.25 18.5C20.25 18.6989 20.171 18.8897 20.0303 19.0303C19.8897 19.171 19.6989 19.25 19.5 19.25H4.5C4.30109 19.25 4.11032 19.171 3.96967 19.0303C3.82902 18.8897 3.75 18.6989 3.75 18.5V8C3.75 7.80109 3.82902 7.61032 3.96967 7.46967C4.11032 7.32902 4.30109 7.25 4.5 7.25H7.5C7.62351 7.25008 7.74512 7.21966 7.85405 7.16143C7.96297 7.10321 8.05583 7.01899 8.12438 6.91625L9.40125 5H14.5978L15.8756 6.91625C15.9442 7.01899 16.037 7.10321 16.146 7.16143C16.2549 7.21966 16.3765 7.25008 16.5 7.25H19.5C19.6989 7.25 19.8897 7.32902 20.0303 7.46967C20.171 7.61032 20.25 7.80109 20.25 8V18.5ZM12 8.75C11.1842 8.75 10.3866 8.99193 9.70827 9.44519C9.02992 9.89845 8.50121 10.5427 8.189 11.2964C7.87679 12.0502 7.7951 12.8796 7.95426 13.6797C8.11343 14.4799 8.50629 15.2149 9.08318 15.7918C9.66008 16.3687 10.3951 16.7616 11.1953 16.9207C11.9954 17.0799 12.8248 16.9982 13.5786 16.686C14.3323 16.3738 14.9766 15.8451 15.4298 15.1667C15.8831 14.4884 16.125 13.6908 16.125 12.875C16.1238 11.7814 15.6888 10.7329 14.9154 9.95955C14.1421 9.18624 13.0936 8.75124 12 8.75ZM12 15.5C11.4808 15.5 10.9733 15.346 10.5416 15.0576C10.1099 14.7692 9.7735 14.3592 9.57482 13.8795C9.37614 13.3999 9.32415 12.8721 9.42544 12.3629C9.52672 11.8537 9.77673 11.386 10.1438 11.0188C10.511 10.6517 10.9787 10.4017 11.4879 10.3004C11.9971 10.1992 12.5249 10.2511 13.0045 10.4498C13.4842 10.6485 13.8942 10.9849 14.1826 11.4166C14.471 11.8483 14.625 12.3558 14.625 12.875C14.625 13.5712 14.3484 14.2389 13.8562 14.7312C13.3639 15.2234 12.6962 15.5 12 15.5Z" fill="#434343"/>
</svg>
