<svg width="32" height="32" viewBox="0 0 32 32" fill="none" xmlns="http://www.w3.org/2000/svg">
<path d="M31 31H3.66667C2.73325 31 2.26654 31 1.91002 30.8183C1.59641 30.6586 1.34144 30.4036 1.18166 30.09C1 29.7335 1 29.2668 1 28.3333V1M31 7.66667L21.9428 16.7239C21.6128 17.0539 21.4478 17.2189 21.2575 17.2807C21.0901 17.3351 20.9099 17.3351 20.7425 17.2807C20.5522 17.2189 20.3872 17.0539 20.0572 16.7239L16.9428 13.6095C16.6128 13.2795 16.4478 13.1145 16.2575 13.0526C16.0901 12.9982 15.9099 12.9982 15.7425 13.0526C15.5522 13.1145 15.3872 13.2795 15.0572 13.6095L7.66667 21M31 7.66667H24.3333M31 7.66667V14.3333" stroke="#099250" stroke-width="2" stroke-linecap="round" stroke-linejoin="round"/>
</svg>
