<svg width="24" height="25" viewBox="0 0 24 25" fill="none" xmlns="http://www.w3.org/2000/svg">
<path d="M21.75 20C21.75 20.1989 21.671 20.3897 21.5303 20.5303C21.3897 20.671 21.1989 20.75 21 20.75H3C2.80109 20.75 2.61032 20.671 2.46967 20.5303C2.32902 20.3897 2.25 20.1989 2.25 20V5C2.25 4.80109 2.32902 4.61032 2.46967 4.46967C2.61032 4.32902 2.80109 4.25 3 4.25C3.19891 4.25 3.38968 4.32902 3.53033 4.46967C3.67098 4.61032 3.75 4.80109 3.75 5V13.8472L8.50594 9.6875C8.63536 9.57421 8.79978 9.50885 8.97165 9.50236C9.14353 9.49587 9.31241 9.54866 9.45 9.65188L14.9634 13.7872L20.5059 8.9375C20.5786 8.86556 20.6652 8.80925 20.7605 8.77201C20.8557 8.73478 20.9575 8.71741 21.0597 8.72097C21.1619 8.72454 21.2623 8.74896 21.3547 8.79275C21.4471 8.83653 21.5296 8.89875 21.5971 8.97558C21.6645 9.0524 21.7156 9.14222 21.7471 9.2395C21.7786 9.33678 21.7899 9.43948 21.7802 9.54128C21.7706 9.64307 21.7402 9.74182 21.691 9.83146C21.6418 9.92109 21.5748 9.99972 21.4941 10.0625L15.4941 15.3125C15.3646 15.4258 15.2002 15.4912 15.0283 15.4976C14.8565 15.5041 14.6876 15.4513 14.55 15.3481L9.03656 11.2147L3.75 15.8403V19.25H21C21.1989 19.25 21.3897 19.329 21.5303 19.4697C21.671 19.6103 21.75 19.8011 21.75 20Z" fill="#262626"/>
</svg>
