<svg width="24" height="25" viewBox="0 0 24 25" fill="none" xmlns="http://www.w3.org/2000/svg">
<path d="M21.0001 12.4999C21.0001 12.6988 20.921 12.8896 20.7804 13.0303C20.6397 13.1709 20.449 13.2499 20.2501 13.2499H12.0001C11.8011 13.2499 11.6104 13.1709 11.4697 13.0303C11.3291 12.8896 11.2501 12.6988 11.2501 12.4999C11.2501 12.301 11.3291 12.1103 11.4697 11.9696C11.6104 11.8289 11.8011 11.7499 12.0001 11.7499H20.2501C20.449 11.7499 20.6397 11.8289 20.7804 11.9696C20.921 12.1103 21.0001 12.301 21.0001 12.4999ZM12.0001 7.24993H20.2501C20.449 7.24993 20.6397 7.17091 20.7804 7.03026C20.921 6.88961 21.0001 6.69884 21.0001 6.49993C21.0001 6.30102 20.921 6.11025 20.7804 5.9696C20.6397 5.82895 20.449 5.74993 20.2501 5.74993H12.0001C11.8011 5.74993 11.6104 5.82895 11.4697 5.9696C11.3291 6.11025 11.2501 6.30102 11.2501 6.49993C11.2501 6.69884 11.3291 6.88961 11.4697 7.03026C11.6104 7.17091 11.8011 7.24993 12.0001 7.24993ZM20.2501 17.7499H12.0001C11.8011 17.7499 11.6104 17.8289 11.4697 17.9696C11.3291 18.1103 11.2501 18.301 11.2501 18.4999C11.2501 18.6988 11.3291 18.8896 11.4697 19.0303C11.6104 19.1709 11.8011 19.2499 12.0001 19.2499H20.2501C20.449 19.2499 20.6397 19.1709 20.7804 19.0303C20.921 18.8896 21.0001 18.6988 21.0001 18.4999C21.0001 18.301 20.921 18.1103 20.7804 17.9696C20.6397 17.8289 20.449 17.7499 20.2501 17.7499ZM7.71943 4.4693L5.25005 6.93962L4.28068 5.9693C4.13995 5.82857 3.94907 5.74951 3.75005 5.74951C3.55103 5.74951 3.36016 5.82857 3.21943 5.9693C3.0787 6.11003 2.99963 6.30091 2.99963 6.49993C2.99963 6.69895 3.0787 6.88982 3.21943 7.03055L4.71943 8.53055C4.78908 8.60029 4.8718 8.65561 4.96285 8.69335C5.05389 8.73109 5.15149 8.75052 5.25005 8.75052C5.34861 8.75052 5.44621 8.73109 5.53726 8.69335C5.6283 8.65561 5.71102 8.60029 5.78068 8.53055L8.78068 5.53055C8.92141 5.38982 9.00047 5.19895 9.00047 4.99993C9.00047 4.80091 8.92141 4.61003 8.78068 4.4693C8.63995 4.32857 8.44907 4.24951 8.25005 4.24951C8.05103 4.24951 7.86016 4.32857 7.71943 4.4693ZM7.71943 10.4693L5.25005 12.9396L4.28068 11.9693C4.13995 11.8286 3.94907 11.7495 3.75005 11.7495C3.55103 11.7495 3.36016 11.8286 3.21943 11.9693C3.0787 12.11 2.99963 12.3009 2.99963 12.4999C2.99963 12.5985 3.01904 12.6961 3.05676 12.7871C3.09447 12.8781 3.14974 12.9609 3.21943 13.0306L4.71943 14.5306C4.78908 14.6003 4.8718 14.6556 4.96285 14.6933C5.05389 14.7311 5.15149 14.7505 5.25005 14.7505C5.34861 14.7505 5.44621 14.7311 5.53726 14.6933C5.6283 14.6556 5.71102 14.6003 5.78068 14.5306L8.78068 11.5306C8.92141 11.3898 9.00047 11.199 9.00047 10.9999C9.00047 10.8009 8.92141 10.61 8.78068 10.4693C8.63995 10.3286 8.44907 10.2495 8.25005 10.2495C8.05103 10.2495 7.86016 10.3286 7.71943 10.4693ZM7.71943 16.4693L5.25005 18.9396L4.28068 17.9693C4.21099 17.8996 4.12827 17.8443 4.03722 17.8066C3.94618 17.7689 3.8486 17.7495 3.75005 17.7495C3.6515 17.7495 3.55392 17.7689 3.46288 17.8066C3.37183 17.8443 3.28911 17.8996 3.21943 17.9693C3.14974 18.039 3.09447 18.1217 3.05676 18.2128C3.01904 18.3038 2.99963 18.4014 2.99963 18.4999C2.99963 18.5985 3.01904 18.6961 3.05676 18.7871C3.09447 18.8781 3.14974 18.9609 3.21943 19.0306L4.71943 20.5306C4.78908 20.6003 4.8718 20.6556 4.96285 20.6933C5.05389 20.7311 5.15149 20.7505 5.25005 20.7505C5.34861 20.7505 5.44621 20.7311 5.53726 20.6933C5.6283 20.6556 5.71102 20.6003 5.78068 20.5306L8.78068 17.5306C8.92141 17.3898 9.00047 17.199 9.00047 16.9999C9.00047 16.8009 8.92141 16.61 8.78068 16.4693C8.63995 16.3286 8.44907 16.2495 8.25005 16.2495C8.05103 16.2495 7.86016 16.3286 7.71943 16.4693Z" fill="#434343"/>
</svg>
