<svg width="24" height="25" viewBox="0 0 24 25" fill="none" xmlns="http://www.w3.org/2000/svg">
<path d="M12 9.5C11.4067 9.5 10.8266 9.67595 10.3333 10.0056C9.83994 10.3352 9.45543 10.8038 9.22836 11.3519C9.0013 11.9001 8.94189 12.5033 9.05765 13.0853C9.1734 13.6672 9.45912 14.2018 9.87868 14.6213C10.2982 15.0409 10.8328 15.3266 11.4147 15.4424C11.9967 15.5581 12.5999 15.4987 13.1481 15.2716C13.6962 15.0446 14.1648 14.6601 14.4944 14.1667C14.8241 13.6734 15 13.0933 15 12.5C15 11.7044 14.6839 10.9413 14.1213 10.3787C13.5587 9.81607 12.7957 9.5 12 9.5ZM12 14C11.7033 14 11.4133 13.912 11.1666 13.7472C10.92 13.5824 10.7277 13.3481 10.6142 13.074C10.5007 12.7999 10.4709 12.4983 10.5288 12.2074C10.5867 11.9164 10.7296 11.6491 10.9393 11.4393C11.1491 11.2296 11.4164 11.0867 11.7074 11.0288C11.9983 10.9709 12.2999 11.0006 12.574 11.1142C12.8481 11.2277 13.0824 11.42 13.2472 11.6666C13.412 11.9133 13.5 12.2033 13.5 12.5C13.5 12.8978 13.342 13.2794 13.0607 13.5607C12.7794 13.842 12.3978 14 12 14ZM4.5 9.5C3.90666 9.5 3.32664 9.67595 2.83329 10.0056C2.33994 10.3352 1.95543 10.8038 1.72836 11.3519C1.5013 11.9001 1.44189 12.5033 1.55765 13.0853C1.6734 13.6672 1.95912 14.2018 2.37868 14.6213C2.79824 15.0409 3.33279 15.3266 3.91473 15.4424C4.49667 15.5581 5.09987 15.4987 5.64805 15.2716C6.19623 15.0446 6.66477 14.6601 6.99441 14.1667C7.32405 13.6734 7.5 13.0933 7.5 12.5C7.5 11.7044 7.18393 10.9413 6.62132 10.3787C6.05871 9.81607 5.29565 9.5 4.5 9.5ZM4.5 14C4.20333 14 3.91332 13.912 3.66665 13.7472C3.41997 13.5824 3.22771 13.3481 3.11418 13.074C3.00065 12.7999 2.97095 12.4983 3.02882 12.2074C3.0867 11.9164 3.22956 11.6491 3.43934 11.4393C3.64912 11.2296 3.91639 11.0867 4.20737 11.0288C4.49834 10.9709 4.79994 11.0006 5.07403 11.1142C5.34812 11.2277 5.58238 11.42 5.74721 11.6666C5.91203 11.9133 6 12.2033 6 12.5C6 12.8978 5.84197 13.2794 5.56066 13.5607C5.27936 13.842 4.89783 14 4.5 14ZM19.5 9.5C18.9067 9.5 18.3266 9.67595 17.8333 10.0056C17.3399 10.3352 16.9554 10.8038 16.7284 11.3519C16.5013 11.9001 16.4419 12.5033 16.5576 13.0853C16.6734 13.6672 16.9591 14.2018 17.3787 14.6213C17.7982 15.0409 18.3328 15.3266 18.9147 15.4424C19.4967 15.5581 20.0999 15.4987 20.6481 15.2716C21.1962 15.0446 21.6648 14.6601 21.9944 14.1667C22.3241 13.6734 22.5 13.0933 22.5 12.5C22.5 11.7044 22.1839 10.9413 21.6213 10.3787C21.0587 9.81607 20.2957 9.5 19.5 9.5ZM19.5 14C19.2033 14 18.9133 13.912 18.6666 13.7472C18.42 13.5824 18.2277 13.3481 18.1142 13.074C18.0007 12.7999 17.9709 12.4983 18.0288 12.2074C18.0867 11.9164 18.2296 11.6491 18.4393 11.4393C18.6491 11.2296 18.9164 11.0867 19.2074 11.0288C19.4983 10.9709 19.7999 11.0006 20.074 11.1142C20.3481 11.2277 20.5824 11.42 20.7472 11.6666C20.912 11.9133 21 12.2033 21 12.5C21 12.8978 20.842 13.2794 20.5607 13.5607C20.2794 13.842 19.8978 14 19.5 14Z" fill="#262626"/>
</svg>
