<svg width="24" height="25" viewBox="0 0 24 25" fill="none" xmlns="http://www.w3.org/2000/svg">
<path d="M12 8.00004C11.11 8.00004 10.24 8.26396 9.49998 8.75843C8.75995 9.2529 8.18318 9.9557 7.84259 10.778C7.50199 11.6002 7.41288 12.505 7.58651 13.3779C7.76014 14.2509 8.18873 15.0527 8.81806 15.682C9.4474 16.3114 10.2492 16.7399 11.1221 16.9136C11.9951 17.0872 12.8998 16.9981 13.7221 16.6575C14.5444 16.3169 15.2472 15.7401 15.7417 15.0001C16.2361 14.2601 16.5 13.3901 16.5 12.5C16.4988 11.3069 16.0243 10.1631 15.1807 9.31943C14.337 8.47579 13.1931 8.00128 12 8.00004ZM12 15.5C11.4067 15.5 10.8267 15.3241 10.3333 14.9945C9.83998 14.6648 9.45547 14.1963 9.2284 13.6481C9.00134 13.0999 8.94193 12.4967 9.05769 11.9148C9.17344 11.3328 9.45916 10.7983 9.87872 10.3787C10.2983 9.95916 10.8328 9.67344 11.4148 9.55769C11.9967 9.44193 12.5999 9.50134 13.1481 9.7284C13.6963 9.95547 14.1648 10.34 14.4945 10.8333C14.8241 11.3267 15 11.9067 15 12.5C15 13.2957 14.684 14.0588 14.1214 14.6214C13.5588 15.184 12.7957 15.5 12 15.5ZM20.25 12.7025C20.2538 12.5675 20.2538 12.4325 20.25 12.2975L21.6488 10.55C21.7221 10.4583 21.7729 10.3506 21.797 10.2356C21.8211 10.1207 21.8179 10.0016 21.7875 9.88817C21.5582 9.02623 21.2152 8.19865 20.7675 7.42723C20.7089 7.32628 20.6275 7.2404 20.5299 7.17644C20.4322 7.11248 20.321 7.07219 20.205 7.05879L17.9813 6.81129C17.8888 6.71379 17.795 6.62004 17.7 6.53004L17.4375 4.30067C17.424 4.18462 17.3836 4.07332 17.3195 3.97566C17.2554 3.87801 17.1693 3.79668 17.0682 3.73817C16.2965 3.29131 15.4689 2.94864 14.6072 2.71911C14.4937 2.68891 14.3746 2.68583 14.2596 2.71009C14.1447 2.73435 14.037 2.78529 13.9454 2.85879L12.2025 4.25004C12.0675 4.25004 11.9325 4.25004 11.7975 4.25004L10.05 2.85411C9.95829 2.78076 9.85059 2.73 9.73563 2.7059C9.62067 2.6818 9.50165 2.68504 9.38817 2.71536C8.52637 2.94507 7.69884 3.28806 6.92723 3.73536C6.82628 3.79397 6.7404 3.87535 6.67644 3.973C6.61248 4.07065 6.57219 4.18189 6.55879 4.29785L6.31129 6.52535C6.21379 6.61848 6.12004 6.71223 6.03004 6.8066L3.80067 7.06254C3.68462 7.07604 3.57332 7.11647 3.47566 7.1806C3.37801 7.24473 3.29668 7.33079 3.23817 7.43192C2.79131 8.20363 2.44864 9.03114 2.21911 9.89286C2.18891 10.0064 2.18583 10.1255 2.21009 10.2404C2.23435 10.3554 2.28529 10.4631 2.35879 10.5547L3.75004 12.2975C3.75004 12.4325 3.75004 12.5675 3.75004 12.7025L2.35411 14.45C2.28076 14.5418 2.23 14.6495 2.2059 14.7645C2.1818 14.8794 2.18504 14.9984 2.21536 15.1119C2.44466 15.9739 2.78767 16.8014 3.23536 17.5729C3.29397 17.6738 3.37535 17.7597 3.473 17.8236C3.57065 17.8876 3.68189 17.9279 3.79785 17.9413L6.02161 18.1888C6.11473 18.2863 6.20848 18.38 6.30286 18.47L6.56254 20.6994C6.57604 20.8155 6.61647 20.9268 6.6806 21.0244C6.74473 21.1221 6.83079 21.2034 6.93192 21.2619C7.70363 21.7088 8.53114 22.0514 9.39286 22.281C9.50641 22.3112 9.62547 22.3143 9.74044 22.29C9.8554 22.2657 9.96306 22.2148 10.0547 22.1413L11.7975 20.75C11.9325 20.7538 12.0675 20.7538 12.2025 20.75L13.95 22.1488C14.0418 22.2221 14.1495 22.2729 14.2645 22.297C14.3794 22.3211 14.4984 22.3179 14.6119 22.2875C15.4739 22.0582 16.3014 21.7152 17.0729 21.2675C17.1738 21.2089 17.2597 21.1275 17.3236 21.0299C17.3876 20.9322 17.4279 20.821 17.4413 20.705L17.6888 18.4813C17.7863 18.3888 17.88 18.295 17.97 18.2L20.1994 17.9375C20.3155 17.924 20.4268 17.8836 20.5244 17.8195C20.6221 17.7554 20.7034 17.6693 20.7619 17.5682C21.2088 16.7965 21.5514 15.9689 21.781 15.1072C21.8112 14.9937 21.8143 14.8746 21.79 14.7596C21.7657 14.6447 21.7148 14.537 21.6413 14.4454L20.25 12.7025ZM18.7407 12.0932C18.7566 12.3642 18.7566 12.6359 18.7407 12.9069C18.7295 13.0925 18.7876 13.2755 18.9038 13.4207L20.2341 15.0829C20.0815 15.568 19.886 16.0386 19.65 16.4891L17.5313 16.7291C17.3468 16.7496 17.1764 16.8378 17.0532 16.9766C16.8727 17.1796 16.6805 17.3718 16.4775 17.5522C16.3387 17.6755 16.2505 17.8458 16.23 18.0304L15.9947 20.1472C15.5443 20.3833 15.0736 20.5788 14.5885 20.7313L12.9254 19.401C12.7923 19.2946 12.627 19.2368 12.4566 19.2369H12.4116C12.1406 19.2529 11.8689 19.2529 11.5979 19.2369C11.4123 19.2257 11.2292 19.2839 11.0841 19.4L9.41723 20.7313C8.9321 20.5786 8.4615 20.3832 8.01098 20.1472L7.77098 18.0313C7.7505 17.8468 7.66231 17.6764 7.52348 17.5532C7.32052 17.3727 7.12831 17.1805 6.94785 16.9775C6.8246 16.8387 6.65424 16.7505 6.46973 16.73L4.35286 16.4938C4.11679 16.0433 3.92132 15.5727 3.76879 15.0875L5.0991 13.4244C5.21527 13.2793 5.2734 13.0962 5.26223 12.9107C5.24629 12.6397 5.24629 12.3679 5.26223 12.0969C5.2734 11.9114 5.21527 11.7283 5.0991 11.5832L3.76879 9.91723C3.92144 9.4321 4.1169 8.9615 4.35286 8.51098L6.46879 8.27098C6.65331 8.2505 6.82367 8.16231 6.94692 8.02348C7.12738 7.82052 7.31958 7.62831 7.52254 7.44785C7.66193 7.32452 7.75048 7.15377 7.77098 6.96879L8.00629 4.85286C8.45676 4.61679 8.92737 4.42132 9.41254 4.26879L11.0757 5.5991C11.2208 5.71527 11.4039 5.7734 11.5894 5.76223C11.8604 5.74629 12.1322 5.74629 12.4032 5.76223C12.5887 5.7734 12.7718 5.71527 12.9169 5.5991L14.5829 4.26879C15.068 4.42144 15.5386 4.6169 15.9891 4.85286L16.2291 6.96879C16.2496 7.15331 16.3378 7.32367 16.4766 7.44692C16.6796 7.62738 16.8718 7.81958 17.0522 8.02254C17.1755 8.16137 17.3458 8.24956 17.5304 8.27004L19.6472 8.50535C19.8833 8.95583 20.0788 9.42644 20.2313 9.9116L18.901 11.5747C18.7837 11.7211 18.7255 11.906 18.7379 12.0932H18.7407Z" fill="#262626"/>
</svg>
