<svg width="32" height="33" viewBox="0 0 32 33" fill="none" xmlns="http://www.w3.org/2000/svg">
<g clip-path="url(#clip0_52_2560)">
<path d="M16 3.32754C20.275 3.32754 20.7813 3.34629 22.4625 3.42129C24.025 3.49004 24.8688 3.75254 25.4313 3.97129C26.175 4.25879 26.7125 4.60879 27.2688 5.16504C27.8313 5.72754 28.175 6.25879 28.4625 7.00254C28.6813 7.56504 28.9438 8.41504 29.0125 9.97129C29.0875 11.6588 29.1063 12.165 29.1063 16.4338C29.1063 20.7088 29.0875 21.215 29.0125 22.8963C28.9438 24.4588 28.6813 25.3025 28.4625 25.865C28.175 26.6088 27.825 27.1463 27.2688 27.7025C26.7063 28.265 26.175 28.6088 25.4313 28.8963C24.8688 29.115 24.0188 29.3775 22.4625 29.4463C20.775 29.5213 20.2688 29.54 16 29.54C11.725 29.54 11.2188 29.5213 9.5375 29.4463C7.975 29.3775 7.13125 29.115 6.56875 28.8963C5.825 28.6088 5.2875 28.2588 4.73125 27.7025C4.16875 27.14 3.825 26.6088 3.5375 25.865C3.31875 25.3025 3.05625 24.4525 2.9875 22.8963C2.9125 21.2088 2.89375 20.7025 2.89375 16.4338C2.89375 12.1588 2.9125 11.6525 2.9875 9.97129C3.05625 8.40879 3.31875 7.56504 3.5375 7.00254C3.825 6.25879 4.175 5.72129 4.73125 5.16504C5.29375 4.60254 5.825 4.25879 6.56875 3.97129C7.13125 3.75254 7.98125 3.49004 9.5375 3.42129C11.2188 3.34629 11.725 3.32754 16 3.32754ZM16 0.446289C11.6563 0.446289 11.1125 0.465039 9.40625 0.540039C7.70625 0.615039 6.5375 0.890039 5.525 1.28379C4.46875 1.69629 3.575 2.24004 2.6875 3.13379C1.79375 4.02129 1.25 4.91504 0.8375 5.96504C0.44375 6.98379 0.16875 8.14629 0.09375 9.84629C0.01875 11.5588 0 12.1025 0 16.4463C0 20.79 0.01875 21.3338 0.09375 23.04C0.16875 24.74 0.44375 25.9088 0.8375 26.9213C1.25 27.9775 1.79375 28.8713 2.6875 29.7588C3.575 30.6463 4.46875 31.1963 5.51875 31.6025C6.5375 31.9963 7.7 32.2713 9.4 32.3463C11.1063 32.4213 11.65 32.44 15.9938 32.44C20.3375 32.44 20.8813 32.4213 22.5875 32.3463C24.2875 32.2713 25.4563 31.9963 26.4688 31.6025C27.5188 31.1963 28.4125 30.6463 29.3 29.7588C30.1875 28.8713 30.7375 27.9775 31.1438 26.9275C31.5375 25.9088 31.8125 24.7463 31.8875 23.0463C31.9625 21.34 31.9813 20.7963 31.9813 16.4525C31.9813 12.1088 31.9625 11.565 31.8875 9.85879C31.8125 8.15879 31.5375 6.99004 31.1438 5.97754C30.75 4.91504 30.2063 4.02129 29.3125 3.13379C28.425 2.24629 27.5313 1.69629 26.4813 1.29004C25.4625 0.896289 24.3 0.621289 22.6 0.546289C20.8875 0.465039 20.3438 0.446289 16 0.446289Z" fill="#000100"/>
<path d="M16 8.22754C11.4625 8.22754 7.78125 11.9088 7.78125 16.4463C7.78125 20.9838 11.4625 24.665 16 24.665C20.5375 24.665 24.2188 20.9838 24.2188 16.4463C24.2188 11.9088 20.5375 8.22754 16 8.22754ZM16 21.7775C13.0563 21.7775 10.6687 19.39 10.6687 16.4463C10.6687 13.5025 13.0563 11.115 16 11.115C18.9438 11.115 21.3312 13.5025 21.3312 16.4463C21.3312 19.39 18.9438 21.7775 16 21.7775Z" fill="#000100"/>
<path d="M26.4625 7.90215C26.4625 8.96465 25.6 9.8209 24.5438 9.8209C23.4813 9.8209 22.625 8.9584 22.625 7.90215C22.625 6.83965 23.4875 5.9834 24.5438 5.9834C25.6 5.9834 26.4625 6.8459 26.4625 7.90215Z" fill="#000100"/>
</g>
<defs>
<clipPath id="clip0_52_2560">
<rect width="32" height="32" fill="white" transform="translate(0 0.446289)"/>
</clipPath>
</defs>
</svg>
