<svg width="32" height="33" viewBox="0 0 32 33" fill="none" xmlns="http://www.w3.org/2000/svg">
<path d="M29.6378 0.446289H2.36222C1.73572 0.446289 1.13488 0.695166 0.691879 1.13817C0.248877 1.58117 0 2.18201 0 2.80851V30.0841C0 30.7106 0.248877 31.3114 0.691879 31.7544C1.13488 32.1974 1.73572 32.4463 2.36222 32.4463H29.6378C30.2643 32.4463 30.8651 32.1974 31.3081 31.7544C31.7511 31.3114 32 30.7106 32 30.0841V2.80851C32 2.18201 31.7511 1.58117 31.3081 1.13817C30.8651 0.695166 30.2643 0.446289 29.6378 0.446289ZM9.53778 27.7063H4.72667V12.4241H9.53778V27.7063ZM7.12889 10.3063C6.58315 10.3032 6.05055 10.1386 5.59831 9.83307C5.14607 9.5276 4.79445 9.095 4.58784 8.58987C4.38122 8.08475 4.32886 7.52975 4.43738 6.9949C4.54589 6.46005 4.8104 5.96932 5.19754 5.58466C5.58468 5.2 6.07709 4.93865 6.61262 4.83357C7.14816 4.72849 7.70282 4.78441 8.2066 4.99427C8.71039 5.20413 9.14072 5.55851 9.44329 6.01271C9.74585 6.4669 9.9071 7.00054 9.90667 7.54629C9.91182 7.91167 9.84335 8.27434 9.70535 8.6127C9.56735 8.95105 9.36264 9.25816 9.10343 9.51571C8.84421 9.77327 8.5358 9.976 8.19657 10.1118C7.85733 10.2476 7.49423 10.3138 7.12889 10.3063ZM27.2711 27.7196H22.4622V19.3707C22.4622 16.9085 21.4156 16.1485 20.0644 16.1485C18.6378 16.1485 17.2378 17.2241 17.2378 19.433V27.7196H12.4267V12.4352H17.0533V14.553H17.1156C17.58 13.613 19.2067 12.0063 21.6889 12.0063C24.3733 12.0063 27.2733 13.5996 27.2733 18.2663L27.2711 27.7196Z" fill="#0A66C2"/>
</svg>
