<svg width="24" height="24" viewBox="0 0 24 24" fill="none" xmlns="http://www.w3.org/2000/svg">
<path d="M7 4L7.2 4C8.88016 4 9.72024 4 10.362 4.32698C10.9265 4.6146 11.3854 5.07354 11.673 5.63803C12 6.27976 12 7.11984 12 8.8L12 15.2C12 16.8802 12 17.7202 11.673 18.362C11.3854 18.9265 10.9265 19.3854 10.362 19.673C9.72024 20 8.88016 20 7.2 20L7 20M7 4C7 2.89543 6.10457 2 5 2C3.89543 2 3 2.89543 3 4C3 5.10457 3.89543 6 5 6C6.10457 6 7 5.10457 7 4ZM7 20C7 18.8954 6.10457 18 5 18C3.89543 18 3 18.8954 3 20C3 21.1046 3.89543 22 5 22C6.10457 22 7 21.1046 7 20ZM17 12L7 12M17 12C17 10.8954 17.8954 10 19 10C20.1046 10 21 10.8954 21 12C21 13.1046 20.1046 14 19 14C17.8954 14 17 13.1046 17 12ZM7 12C7 10.8954 6.10457 10 5 10C3.89543 10 3 10.8954 3 12C3 13.1046 3.89543 14 5 14C6.10457 14 7 13.1046 7 12Z" stroke="#1570EF" stroke-width="2" stroke-linecap="round" stroke-linejoin="round"/>
</svg>
