<svg width="24" height="25" viewBox="0 0 24 25" fill="none" xmlns="http://www.w3.org/2000/svg">
<path d="M20.6503 15.363C20.5434 15.2956 20.4212 15.2562 20.2949 15.2487C20.1687 15.2412 20.0427 15.2657 19.9285 15.3199C19.6427 15.4551 19.3274 15.5158 19.0118 15.4964C18.6963 15.477 18.3908 15.3781 18.1237 15.209C17.8566 15.0399 17.6366 14.8059 17.4842 14.529C17.3318 14.252 17.2518 13.941 17.2518 13.6249C17.2518 13.3088 17.3318 12.9978 17.4842 12.7208C17.6366 12.4439 17.8566 12.2099 18.1237 12.0408C18.3908 11.8717 18.6963 11.7728 19.0118 11.7534C19.3274 11.734 19.6427 11.7947 19.9285 11.9299C20.0428 11.9842 20.169 12.0086 20.2953 12.001C20.4217 11.9933 20.544 11.9538 20.651 11.8862C20.7579 11.8185 20.846 11.7249 20.9071 11.614C20.9681 11.5032 21.0001 11.3786 21 11.2521V7.2499C21 6.85207 20.842 6.47054 20.5607 6.18923C20.2794 5.90793 19.8979 5.74989 19.5 5.74989H16.1044C16.1184 5.62539 16.1252 5.50018 16.125 5.37489C16.1243 4.91395 16.0295 4.458 15.8464 4.03499C15.6633 3.61198 15.3957 3.23083 15.06 2.9149C14.5953 2.47841 14.0164 2.18249 13.3904 2.06141C12.7644 1.94034 12.117 1.99905 11.523 2.23076C10.929 2.46247 10.4128 2.8577 10.0341 3.37067C9.65549 3.88364 9.42989 4.49338 9.38347 5.12927C9.36906 5.33612 9.37345 5.54384 9.39659 5.74989H6.00003C5.60221 5.74989 5.22067 5.90793 4.93937 6.18923C4.65807 6.47054 4.50003 6.85207 4.50003 7.2499V10.2705C4.37552 10.2566 4.25032 10.2497 4.12503 10.2499C3.66409 10.2506 3.20816 10.3455 2.78516 10.5286C2.36216 10.7117 1.981 10.9793 1.66503 11.3149C1.34679 11.6511 1.10175 12.0496 0.945386 12.4853C0.789021 12.921 0.724736 13.3843 0.756593 13.8461C0.810338 14.6593 1.15585 15.4257 1.7296 16.0045C2.30334 16.5832 3.06674 16.9354 3.87941 16.9961C4.08624 17.011 4.29401 17.0066 4.50003 16.983V19.9999C4.50003 20.3977 4.65807 20.7793 4.93937 21.0606C5.22067 21.3419 5.60221 21.4999 6.00003 21.4999H19.5C19.8979 21.4999 20.2794 21.3419 20.5607 21.0606C20.842 20.7793 21 20.3977 21 19.9999V15.9977C21.0001 15.871 20.9681 15.7463 20.9069 15.6353C20.8458 15.5243 20.7575 15.4307 20.6503 15.363ZM19.5 19.9999H6.00003V15.9977C6.00007 15.8711 5.96809 15.7466 5.90705 15.6358C5.84602 15.5249 5.75792 15.4313 5.65096 15.3636C5.54401 15.296 5.42167 15.2565 5.29534 15.2488C5.16901 15.2412 5.0428 15.2656 4.92847 15.3199C4.64268 15.4551 4.32737 15.5158 4.01183 15.4964C3.6963 15.477 3.39079 15.3781 3.1237 15.209C2.85662 15.0399 2.63664 14.8059 2.48421 14.529C2.33178 14.252 2.25184 13.941 2.25184 13.6249C2.25184 13.3088 2.33178 12.9978 2.48421 12.7208C2.63664 12.4439 2.85662 12.2099 3.1237 12.0408C3.39079 11.8717 3.6963 11.7728 4.01183 11.7534C4.32737 11.734 4.64268 11.7947 4.92847 11.9299C5.0428 11.9842 5.16901 12.0086 5.29534 12.001C5.42167 11.9933 5.54401 11.9538 5.65096 11.8862C5.75792 11.8185 5.84602 11.7249 5.90705 11.614C5.96809 11.5032 6.00007 11.3786 6.00003 11.2521V7.2499H10.3772C10.5038 7.24994 10.6283 7.21795 10.7392 7.15692C10.85 7.09588 10.9436 7.00779 11.0113 6.90083C11.079 6.79387 11.1184 6.67153 11.1261 6.5452C11.1337 6.41888 11.1093 6.29267 11.055 6.17833C10.9199 5.89255 10.8592 5.57723 10.8786 5.2617C10.898 4.94616 10.9968 4.64065 11.1659 4.37357C11.3351 4.10649 11.569 3.8865 11.8459 3.73407C12.1229 3.58164 12.4339 3.50171 12.75 3.50171C13.0662 3.50171 13.3772 3.58164 13.6541 3.73407C13.9311 3.8865 14.165 4.10649 14.3341 4.37357C14.5033 4.64065 14.6021 4.94616 14.6215 5.2617C14.6409 5.57723 14.5802 5.89255 14.445 6.17833C14.3908 6.29267 14.3663 6.41888 14.374 6.5452C14.3816 6.67153 14.4211 6.79387 14.4888 6.90083C14.5564 7.00779 14.65 7.09588 14.7609 7.15692C14.8718 7.21795 14.9963 7.24994 15.1228 7.2499H19.5V10.2715C19.294 10.2479 19.0862 10.2435 18.8794 10.2583C18.0065 10.3201 17.1917 10.7186 16.607 11.3696C16.0222 12.0206 15.7132 12.8733 15.745 13.7478C15.7769 14.6223 16.1472 15.4502 16.7778 16.057C17.4084 16.6637 18.25 17.0018 19.125 16.9999C19.2503 17.0001 19.3755 16.9932 19.5 16.9793V19.9999Z" fill="#262626"/>
</svg>
