<svg width="24" height="25" viewBox="0 0 24 25" fill="none" xmlns="http://www.w3.org/2000/svg">
<path d="M22.4466 12.9688L19.4466 5.46875C19.3805 5.30355 19.2579 5.16721 19.1006 5.08409C18.9433 5.00097 18.7615 4.97648 18.5878 5.015L12.75 6.3125V4.25C12.75 4.05109 12.671 3.86032 12.5303 3.71967C12.3897 3.57902 12.1989 3.5 12 3.5C11.8011 3.5 11.6103 3.57902 11.4697 3.71967C11.329 3.86032 11.25 4.05109 11.25 4.25V6.64813L5.08689 8.01781C4.96806 8.04406 4.85741 8.09883 4.76447 8.17739C4.67153 8.25595 4.59911 8.35595 4.55345 8.46875V8.47437L1.55345 15.9688C1.51756 16.0581 1.49941 16.1537 1.50001 16.25C1.50001 18.4353 3.80064 19.25 5.25001 19.25C6.69939 19.25 9.00001 18.4353 9.00001 16.25C9.00062 16.1537 8.98247 16.0581 8.94658 15.9688L6.27376 9.29094L11.25 8.1875V20H9.75001C9.5511 20 9.36034 20.079 9.21968 20.2197C9.07903 20.3603 9.00001 20.5511 9.00001 20.75C9.00001 20.9489 9.07903 21.1397 9.21968 21.2803C9.36034 21.421 9.5511 21.5 9.75001 21.5H14.25C14.4489 21.5 14.6397 21.421 14.7803 21.2803C14.921 21.1397 15 20.9489 15 20.75C15 20.5511 14.921 20.3603 14.7803 20.2197C14.6397 20.079 14.4489 20 14.25 20H12.75V7.85187L17.5313 6.79062L15.0535 12.9688C15.0176 13.0581 14.9994 13.1537 15 13.25C15 15.4353 17.3006 16.25 18.75 16.25C20.1994 16.25 22.5 15.4353 22.5 13.25C22.5006 13.1537 22.4825 13.0581 22.4466 12.9688ZM5.25001 17.75C4.54408 17.75 3.11626 17.4116 3.00658 16.3775L5.25001 10.7694L7.49345 16.3775C7.38376 17.4116 5.95595 17.75 5.25001 17.75ZM18.75 14.75C18.0441 14.75 16.6163 14.4116 16.5066 13.3775L18.75 7.76937L20.9935 13.3775C20.8838 14.4116 19.456 14.75 18.75 14.75Z" fill="#262626"/>
</svg>
