<svg width="24" height="25" viewBox="0 0 24 25" fill="none" xmlns="http://www.w3.org/2000/svg">
<path d="M22.3725 3.62746C22.0939 3.34881 21.7631 3.12777 21.3991 2.97696C21.0351 2.82616 20.6449 2.74854 20.2509 2.74854C19.8569 2.74854 19.4667 2.82616 19.1027 2.97696C18.7387 3.12777 18.4079 3.34881 18.1293 3.62746C17.8507 3.90604 17.6297 4.23679 17.4788 4.60081C17.328 4.96483 17.2504 5.355 17.2504 5.74902C17.2504 6.14304 17.328 6.53321 17.4788 6.89723C17.6297 7.26125 17.8507 7.592 18.1293 7.87058C18.1565 7.89777 18.1856 7.92402 18.2137 7.95027L15.7171 12.5871C14.956 12.4015 14.1525 12.5192 13.4765 12.9153L11.5847 11.0234C11.9569 10.3943 12.0866 9.65098 11.9495 8.93302C11.8123 8.21505 11.4178 7.57184 10.84 7.12419C10.2622 6.67654 9.54077 6.45526 8.81131 6.50189C8.08186 6.54853 7.39453 6.85987 6.8784 7.37746C6.59975 7.65604 6.37871 7.98679 6.2279 8.35081C6.0771 8.71483 5.99948 9.105 5.99948 9.49902C5.99948 9.89304 6.0771 10.2832 6.2279 10.6472C6.37871 11.0113 6.59975 11.342 6.8784 11.6206C6.90559 11.6478 6.93371 11.674 6.96184 11.7003L4.46527 16.3381C3.96415 16.2147 3.43967 16.2228 2.94255 16.3614C2.44543 16.5 1.99247 16.7645 1.62746 17.1293C1.20797 17.5489 0.922319 18.0835 0.806619 18.6654C0.690919 19.2473 0.750369 19.8505 0.977452 20.3986C1.20453 20.9468 1.58905 21.4153 2.08239 21.7449C2.57572 22.0745 3.15571 22.2504 3.74902 22.2504C4.34234 22.2504 4.92233 22.0745 5.41566 21.7449C5.909 21.4153 6.29351 20.9468 6.5206 20.3986C6.74768 19.8505 6.80713 19.2473 6.69143 18.6654C6.57573 18.0835 6.29008 17.5489 5.87059 17.1293C5.8434 17.1021 5.81434 17.0759 5.78621 17.0496L8.28277 12.4128C8.51752 12.4703 8.75828 12.4995 8.99996 12.5C9.53558 12.5006 10.0616 12.3579 10.5234 12.0865L12.4153 13.9784C12.1305 14.4618 11.9869 15.0153 12.0009 15.5762C12.0149 16.1371 12.1859 16.6828 12.4945 17.1514C12.8031 17.6199 13.2369 17.9926 13.7466 18.227C14.2564 18.4614 14.8216 18.5481 15.3782 18.4774C15.9348 18.4067 16.4604 18.1813 16.8953 17.8268C17.3302 17.4724 17.657 17.0031 17.8385 16.4722C18.0201 15.9413 18.0492 15.3702 17.9224 14.8236C17.7957 14.2771 17.5182 13.777 17.1215 13.3803C17.0943 13.3531 17.0662 13.3268 17.0381 13.3006L19.5346 8.66371C19.7688 8.7208 20.0089 8.74975 20.25 8.74996C20.8432 8.74987 21.4231 8.57391 21.9163 8.24431C22.4095 7.91472 22.794 7.4463 23.021 6.89825C23.2481 6.35021 23.3076 5.74715 23.192 5.1653C23.0764 4.58345 22.7909 4.04894 22.3715 3.62933L22.3725 3.62746ZM4.80934 20.3121C4.52788 20.5935 4.14618 20.7515 3.74822 20.7514C3.35027 20.7513 2.96864 20.5931 2.68731 20.3117C2.40597 20.0302 2.24797 19.6485 2.24805 19.2506C2.24814 18.8526 2.40631 18.471 2.68777 18.1896C2.82714 18.0503 2.99258 17.9399 3.17464 17.8645C3.35671 17.7891 3.55184 17.7503 3.74889 17.7504C3.94594 17.7504 4.14105 17.7893 4.32308 17.8647C4.50511 17.9402 4.6705 18.0507 4.80981 18.1901C4.94911 18.3295 5.0596 18.4949 5.13497 18.677C5.21033 18.8591 5.2491 19.0542 5.24906 19.2512C5.24902 19.4483 5.21016 19.6434 5.13471 19.8254C5.05927 20.0075 4.9487 20.1728 4.80934 20.3121ZM7.93871 10.5621C7.79939 10.4229 7.68887 10.2575 7.61347 10.0755C7.53806 9.89346 7.49925 9.69838 7.49925 9.50136C7.49925 9.30435 7.53806 9.10927 7.61347 8.92726C7.68887 8.74525 7.79939 8.57987 7.93871 8.44058C8.14851 8.23084 8.41578 8.08801 8.70674 8.03016C8.9977 7.97231 9.29929 8.00204 9.57336 8.11558C9.84743 8.22912 10.0817 8.42138 10.2465 8.66804C10.4113 8.91471 10.4993 9.20471 10.4993 9.50136C10.4993 9.79802 10.4113 10.088 10.2465 10.3347C10.0817 10.5814 9.84743 10.7736 9.57336 10.8872C9.29929 11.0007 8.9977 11.0304 8.70674 10.9726C8.41578 10.9147 8.14851 10.7719 7.93871 10.5621ZM16.0612 16.5621C15.7799 16.8435 15.3983 17.0015 15.0004 17.0015C14.6026 17.0015 14.221 16.8435 13.9396 16.5621C13.6583 16.2808 13.5003 15.8992 13.5003 15.5014C13.5003 15.1035 13.6583 14.7219 13.9396 14.4406C14.221 14.1592 14.6026 14.0012 15.0004 14.0012C15.3983 14.0012 15.7799 14.1592 16.0612 14.4406C16.3425 14.7219 16.5006 15.1035 16.5006 15.5014C16.5006 15.8992 16.3425 16.2808 16.0612 16.5621ZM21.3112 6.81215C21.0295 7.09336 20.6476 7.25114 20.2496 7.25079C19.8515 7.25044 19.4699 7.09198 19.1887 6.81027C18.9075 6.52856 18.7497 6.14668 18.7501 5.74863C18.7504 5.35059 18.9089 4.96898 19.1906 4.68777C19.33 4.54847 19.4954 4.43798 19.6775 4.36261C19.8595 4.28724 20.0547 4.24847 20.2517 4.24852C20.4487 4.24856 20.6439 4.28742 20.8259 4.36286C21.0079 4.43831 21.1733 4.54887 21.3126 4.68824C21.4519 4.8276 21.5624 4.99304 21.6378 5.17511C21.7131 5.35717 21.7519 5.5523 21.7519 5.74935C21.7518 5.9464 21.713 6.14151 21.6375 6.32354C21.5621 6.50558 21.4515 6.67097 21.3121 6.81027L21.3112 6.81215Z" fill="#262626"/>
</svg>
