<svg width="24" height="25" viewBox="0 0 24 25" fill="none" xmlns="http://www.w3.org/2000/svg">
<path d="M19.5 4.25H4.5C4.10218 4.25 3.72064 4.40804 3.43934 4.68934C3.15804 4.97064 3 5.35218 3 5.75V11.2597C3 19.6606 10.1081 22.4478 11.5312 22.9212C11.8352 23.0246 12.1648 23.0246 12.4688 22.9212C13.8938 22.4478 21 19.6606 21 11.2597V5.75C21 5.35218 20.842 4.97064 20.5607 4.68934C20.2794 4.40804 19.8978 4.25 19.5 4.25ZM19.5 11.2616C19.5 18.6134 13.2797 21.0697 12 21.4972C10.7316 21.0744 4.5 18.62 4.5 11.2616V5.75H19.5V11.2616Z" fill="#262626"/>
</svg>
