<svg width="24" height="25" viewBox="0 0 24 25" fill="none" xmlns="http://www.w3.org/2000/svg">
<path d="M23.25 5.75C23.25 5.94891 23.171 6.13968 23.0303 6.28033C22.8897 6.42098 22.6989 6.5 22.5 6.5H18V10.25C18 10.4489 17.921 10.6397 17.7803 10.7803C17.6397 10.921 17.4489 11 17.25 11H12.75V14.75C12.75 14.9489 12.671 15.1397 12.5303 15.2803C12.3897 15.421 12.1989 15.5 12 15.5H7.5V19.25C7.5 19.4489 7.42098 19.6397 7.28033 19.7803C7.13968 19.921 6.94891 20 6.75 20H1.5C1.30109 20 1.11032 19.921 0.96967 19.7803C0.829018 19.6397 0.75 19.4489 0.75 19.25C0.75 19.0511 0.829018 18.8603 0.96967 18.7197C1.11032 18.579 1.30109 18.5 1.5 18.5H6V14.75C6 14.5511 6.07902 14.3603 6.21967 14.2197C6.36032 14.079 6.55109 14 6.75 14H11.25V10.25C11.25 10.0511 11.329 9.86032 11.4697 9.71967C11.6103 9.57902 11.8011 9.5 12 9.5H16.5V5.75C16.5 5.55109 16.579 5.36032 16.7197 5.21967C16.8603 5.07902 17.0511 5 17.25 5H22.5C22.6989 5 22.8897 5.07902 23.0303 5.21967C23.171 5.36032 23.25 5.55109 23.25 5.75Z" fill="#262626"/>
</svg>
