<svg width="24" height="25" viewBox="0 0 24 25" fill="none" xmlns="http://www.w3.org/2000/svg">
<path d="M20.8003 8.29614C21.841 10.4728 22.0386 12.9579 21.3549 15.2717C20.6712 17.5855 19.1546 19.564 17.0979 20.8253C15.0412 22.0867 12.5901 22.5416 10.2178 22.102C7.84545 21.6625 5.72 20.3598 4.25166 18.4454C2.78332 16.5309 2.07617 14.1405 2.2667 11.7353C2.45722 9.33012 3.53191 7.08078 5.28335 5.42139C7.03479 3.76199 9.33883 2.81018 11.7508 2.74966C14.1627 2.68913 16.5116 3.52418 18.344 5.09364L20.4694 2.96738C20.6101 2.82665 20.801 2.74759 21 2.74759C21.199 2.74759 21.3899 2.82665 21.5306 2.96738C21.6713 3.10812 21.7504 3.29899 21.7504 3.49801C21.7504 3.69703 21.6713 3.8879 21.5306 4.02863L12.5306 13.0286C12.3899 13.1694 12.199 13.2484 12 13.2484C11.801 13.2484 11.6101 13.1694 11.4694 13.0286C11.3286 12.8879 11.2496 12.697 11.2496 12.498C11.2496 12.299 11.3286 12.1081 11.4694 11.9674L14.0681 9.36864C13.3638 8.90284 12.5229 8.68838 11.6816 8.75996C10.8402 8.83154 10.0477 9.18498 9.43219 9.76306C8.81671 10.3411 8.41434 11.11 8.29022 11.9452C8.1661 12.7805 8.3275 13.6331 8.74828 14.3652C9.16907 15.0973 9.82461 15.6659 10.6088 15.9791C11.393 16.2922 12.2599 16.3315 13.0692 16.0907C13.8785 15.8498 14.5828 15.3428 15.0682 14.6519C15.5535 13.9609 15.7914 13.1263 15.7434 12.2833C15.7379 12.1848 15.7518 12.0862 15.7844 11.9931C15.8169 11.9 15.8675 11.8142 15.9333 11.7406C15.999 11.6671 16.0786 11.6072 16.1674 11.5644C16.2563 11.5216 16.3527 11.4967 16.4512 11.4911C16.6501 11.4799 16.8454 11.5482 16.9939 11.681C17.0675 11.7467 17.1274 11.8263 17.1702 11.9151C17.213 12.004 17.2379 12.1005 17.2434 12.1989C17.3118 13.3922 16.971 14.573 16.2773 15.5463C15.5837 16.5196 14.5786 17.2271 13.4284 17.5518C12.2782 17.8765 11.0516 17.7991 9.95135 17.3322C8.85111 16.8654 7.9431 16.0371 7.37738 14.9843C6.81166 13.9315 6.6221 12.7171 6.84004 11.542C7.05798 10.3668 7.67037 9.30121 8.57599 8.52125C9.48161 7.7413 10.6262 7.2937 11.8207 7.25243C13.0152 7.21115 14.188 7.57868 15.1453 8.29426L17.2781 6.16145C15.7151 4.86376 13.7278 4.18929 11.6978 4.26758C9.6678 4.34587 7.73832 5.17141 6.27991 6.58563C4.82151 7.99986 3.93702 9.90304 3.79634 11.9297C3.65565 13.9563 4.26869 15.9634 5.5177 17.5656C6.76671 19.1678 8.56362 20.252 10.5633 20.61C12.563 20.968 14.6245 20.5746 16.3518 19.5053C18.0791 18.4361 19.3505 16.7663 19.9217 14.8168C20.4929 12.8672 20.3237 10.7754 19.4465 8.94301C19.3608 8.76349 19.3498 8.55725 19.4161 8.36965C19.4824 8.18206 19.6205 8.02848 19.8 7.9427C19.9795 7.85692 20.1857 7.84596 20.3733 7.91225C20.5609 7.97853 20.7145 8.11662 20.8003 8.29614Z" fill="#434343"/>
</svg>
