<svg width="32" height="33" viewBox="0 0 32 33" fill="none" xmlns="http://www.w3.org/2000/svg">
<g clip-path="url(#clip0_52_2559)">
<path d="M16 32.4463C24.8366 32.4463 32 25.2828 32 16.4463C32 7.60973 24.8366 0.446289 16 0.446289C7.16344 0.446289 0 7.60973 0 16.4463C0 25.2828 7.16344 32.4463 16 32.4463Z" fill="url(#paint0_linear_52_2559)"/>
<path fill-rule="evenodd" clip-rule="evenodd" d="M7.24248 16.2772C11.9068 14.2451 15.0171 12.9053 16.5733 12.258C21.0167 10.4099 21.94 10.0888 22.5418 10.0782C22.6741 10.0759 22.9701 10.1087 23.1618 10.2643C23.3236 10.3956 23.3682 10.573 23.3895 10.6976C23.4108 10.8221 23.4373 11.1058 23.4162 11.3274C23.1755 13.8574 22.1336 19.997 21.6035 22.8306C21.3792 24.0296 20.9376 24.4316 20.5101 24.471C19.5809 24.5565 18.8754 23.8569 17.9754 23.267C16.5672 22.3439 15.7717 21.7693 14.4048 20.8685C12.8251 19.8275 13.8491 19.2554 14.7494 18.3203C14.985 18.0756 19.0789 14.3519 19.1581 14.0141C19.168 13.9719 19.1772 13.8144 19.0836 13.7313C18.9901 13.6481 18.852 13.6765 18.7524 13.6992C18.6111 13.7312 16.3615 15.2181 12.0035 18.1599C11.3649 18.5984 10.7866 18.812 10.2683 18.8008C9.69706 18.7885 8.59814 18.4778 7.78121 18.2123C6.77921 17.8866 5.98284 17.7144 6.05218 17.1612C6.0883 16.8731 6.48507 16.5784 7.24248 16.2772Z" fill="white"/>
</g>
<defs>
<linearGradient id="paint0_linear_52_2559" x1="16" y1="0.446289" x2="16" y2="32.209" gradientUnits="userSpaceOnUse">
<stop stop-color="#2AABEE"/>
<stop offset="1" stop-color="#229ED9"/>
</linearGradient>
<clipPath id="clip0_52_2559">
<rect width="32" height="32" fill="white" transform="translate(0 0.446289)"/>
</clipPath>
</defs>
</svg>
