<svg width="24" height="25" viewBox="0 0 24 25" fill="none" xmlns="http://www.w3.org/2000/svg">
<path d="M21 6.5H16.5V5.75C16.5 5.15326 16.2629 4.58097 15.841 4.15901C15.419 3.73705 14.8467 3.5 14.25 3.5H9.75C9.15326 3.5 8.58097 3.73705 8.15901 4.15901C7.73705 4.58097 7.5 5.15326 7.5 5.75V6.5H3C2.60218 6.5 2.22064 6.65804 1.93934 6.93934C1.65804 7.22064 1.5 7.60218 1.5 8V18.5C1.5 18.8978 1.65804 19.2794 1.93934 19.5607C2.22064 19.842 2.60218 20 3 20H21C21.3978 20 21.7794 19.842 22.0607 19.5607C22.342 19.2794 22.5 18.8978 22.5 18.5V8C22.5 7.60218 22.342 7.22064 22.0607 6.93934C21.7794 6.65804 21.3978 6.5 21 6.5ZM9 5.75C9 5.55109 9.07902 5.36032 9.21967 5.21967C9.36032 5.07902 9.55109 5 9.75 5H14.25C14.4489 5 14.6397 5.07902 14.7803 5.21967C14.921 5.36032 15 5.55109 15 5.75V6.5H9V5.75ZM21 8V11H18V10.25C18 10.0511 17.921 9.86032 17.7803 9.71967C17.6397 9.57902 17.4489 9.5 17.25 9.5C17.0511 9.5 16.8603 9.57902 16.7197 9.71967C16.579 9.86032 16.5 10.0511 16.5 10.25V11H7.5V10.25C7.5 10.0511 7.42098 9.86032 7.28033 9.71967C7.13968 9.57902 6.94891 9.5 6.75 9.5C6.55109 9.5 6.36032 9.57902 6.21967 9.71967C6.07902 9.86032 6 10.0511 6 10.25V11H3V8H21ZM21 18.5H3V12.5H6V13.25C6 13.4489 6.07902 13.6397 6.21967 13.7803C6.36032 13.921 6.55109 14 6.75 14C6.94891 14 7.13968 13.921 7.28033 13.7803C7.42098 13.6397 7.5 13.4489 7.5 13.25V12.5H16.5V13.25C16.5 13.4489 16.579 13.6397 16.7197 13.7803C16.8603 13.921 17.0511 14 17.25 14C17.4489 14 17.6397 13.921 17.7803 13.7803C17.921 13.6397 18 13.4489 18 13.25V12.5H21V18.5Z" fill="#434343"/>
</svg>
