<svg width="24" height="25" viewBox="0 0 24 25" fill="none" xmlns="http://www.w3.org/2000/svg">
<path d="M22.95 14.6002C22.8712 14.6593 22.7816 14.7023 22.6862 14.7267C22.5908 14.7511 22.4915 14.7566 22.394 14.7426C22.2965 14.7287 22.2027 14.6957 22.1179 14.6455C22.0332 14.5953 21.9591 14.529 21.9 14.4502C21.448 13.8425 20.8596 13.3495 20.1822 13.0108C19.5048 12.6721 18.7574 12.4972 18 12.5002C17.8526 12.5002 17.7083 12.4567 17.5855 12.3751C17.4626 12.2936 17.3664 12.1776 17.3091 12.0417C17.2702 11.9495 17.2501 11.8503 17.2501 11.7502C17.2501 11.65 17.2702 11.5509 17.3091 11.4586C17.3664 11.3227 17.4626 11.2068 17.5855 11.1252C17.7083 11.0437 17.8526 11.0002 18 11.0002C18.4209 11.0001 18.8332 10.8821 19.1903 10.6594C19.5474 10.4368 19.8349 10.1184 20.0201 9.74058C20.2054 9.36273 20.2809 8.9405 20.2382 8.52185C20.1955 8.10321 20.0363 7.70493 19.7786 7.37225C19.5209 7.03958 19.175 6.78584 18.7803 6.63987C18.3856 6.4939 17.9579 6.46154 17.5458 6.54646C17.1336 6.63139 16.7535 6.8302 16.4487 7.12031C16.1439 7.41043 15.9265 7.78021 15.8213 8.18767C15.7967 8.28308 15.7535 8.37271 15.6942 8.45144C15.635 8.53017 15.5608 8.59645 15.4759 8.64651C15.391 8.69656 15.2971 8.72941 15.1995 8.74318C15.102 8.75694 15.0026 8.75135 14.9072 8.72673C14.8118 8.70211 14.7222 8.65893 14.6435 8.59967C14.5647 8.54041 14.4984 8.46622 14.4484 8.38134C14.3983 8.29646 14.3655 8.20256 14.3517 8.10498C14.338 8.00741 14.3435 7.90808 14.3682 7.81267C14.5142 7.24765 14.7901 6.72451 15.1738 6.28487C15.5576 5.84523 16.0387 5.50124 16.5788 5.28025C17.119 5.05926 17.7032 4.96738 18.2851 5.01191C18.867 5.05645 19.4304 5.23618 19.9306 5.5368C20.4308 5.83742 20.8539 6.25063 21.1663 6.74356C21.4787 7.23648 21.6718 7.79552 21.7301 8.37618C21.7884 8.95684 21.7104 9.5431 21.5023 10.0883C21.2942 10.6335 20.9617 11.1226 20.5313 11.5167C21.5511 11.9583 22.4377 12.659 23.1028 13.5492C23.1619 13.6282 23.2049 13.7181 23.2292 13.8137C23.2535 13.9093 23.2587 14.0088 23.2445 14.1064C23.2303 14.204 23.197 14.2979 23.1465 14.3826C23.0959 14.4673 23.0292 14.5413 22.95 14.6002ZM17.8988 20.3752C17.9531 20.4605 17.9895 20.556 18.0059 20.6558C18.0223 20.7556 18.0184 20.8577 17.9943 20.956C17.9703 21.0542 17.9266 21.1466 17.8659 21.2275C17.8052 21.3084 17.7288 21.3762 17.6412 21.4269C17.5536 21.4775 17.4567 21.5099 17.3563 21.5221C17.2559 21.5343 17.154 21.526 17.0569 21.4978C16.9597 21.4696 16.8693 21.4221 16.791 21.3581C16.7127 21.294 16.6482 21.2148 16.6013 21.1252C16.1288 20.3252 15.456 19.6622 14.6491 19.2016C13.8422 18.741 12.9291 18.4988 12 18.4988C11.0709 18.4988 10.1579 18.741 9.35102 19.2016C8.54412 19.6622 7.87125 20.3252 7.39879 21.1252C7.3519 21.2148 7.28737 21.294 7.20908 21.3581C7.13078 21.4221 7.04034 21.4696 6.94319 21.4978C6.84605 21.526 6.7442 21.5343 6.64379 21.5221C6.54338 21.5099 6.44647 21.4775 6.35889 21.4269C6.27132 21.3762 6.19489 21.3084 6.1342 21.2275C6.07352 21.1466 6.02983 21.0542 6.00576 20.956C5.9817 20.8577 5.97775 20.7556 5.99417 20.6558C6.01059 20.556 6.04702 20.4605 6.10129 20.3752C6.82841 19.1258 7.9371 18.1427 9.26441 17.5702C8.51753 16.9983 7.96863 16.2068 7.69485 15.3069C7.42108 14.407 7.4362 13.4438 7.73808 12.553C8.03997 11.6621 8.61346 10.8882 9.37792 10.3401C10.1424 9.79194 11.0594 9.49716 12 9.49716C12.9407 9.49716 13.8577 9.79194 14.6222 10.3401C15.3866 10.8882 15.9601 11.6621 16.262 12.553C16.5639 13.4438 16.579 14.407 16.3052 15.3069C16.0315 16.2068 15.4825 16.9983 14.7357 17.5702C16.063 18.1427 17.1717 19.1258 17.8988 20.3752ZM12 17.0002C12.5934 17.0002 13.1734 16.8242 13.6667 16.4946C14.1601 16.1649 14.5446 15.6964 14.7717 15.1482C14.9987 14.6 15.0582 13.9968 14.9424 13.4149C14.8266 12.833 14.5409 12.2984 14.1214 11.8788C13.7018 11.4593 13.1673 11.1736 12.5853 11.0578C12.0034 10.9421 11.4002 11.0015 10.852 11.2285C10.3038 11.4556 9.83528 11.8401 9.50563 12.3335C9.17599 12.8268 9.00004 13.4068 9.00004 14.0002C9.00004 14.7958 9.31611 15.5589 9.87872 16.1215C10.4413 16.6841 11.2044 17.0002 12 17.0002ZM6.75004 11.7502C6.75004 11.5513 6.67102 11.3605 6.53037 11.2198C6.38972 11.0792 6.19895 11.0002 6.00004 11.0002C5.57922 11.0001 5.16685 10.8821 4.80976 10.6594C4.45267 10.4368 4.16518 10.1184 3.97994 9.74058C3.79471 9.36273 3.71915 8.9405 3.76185 8.52185C3.80455 8.10321 3.9638 7.70493 4.22152 7.37225C4.47923 7.03958 4.82507 6.78584 5.21976 6.63987C5.61445 6.4939 6.04216 6.46154 6.45432 6.54646C6.86648 6.63139 7.24656 6.8302 7.55139 7.12031C7.85622 7.41043 8.07359 7.78021 8.17879 8.18767C8.22852 8.38036 8.35276 8.54541 8.52418 8.64651C8.6956 8.7476 8.90016 8.77646 9.09285 8.72673C9.28555 8.677 9.4506 8.55276 9.55169 8.38134C9.65279 8.20992 9.68164 8.00536 9.63192 7.81267C9.48589 7.24765 9.21002 6.72451 8.82624 6.28487C8.44246 5.84523 7.96137 5.50124 7.42125 5.28025C6.88112 5.05926 6.29688 4.96738 5.715 5.01191C5.13312 5.05645 4.56967 5.23618 4.06947 5.5368C3.56928 5.83742 3.14614 6.25063 2.83375 6.74356C2.52135 7.23648 2.32831 7.79552 2.26998 8.37618C2.21165 8.95684 2.28965 9.5431 2.49777 10.0883C2.70589 10.6335 3.03838 11.1226 3.46879 11.5167C2.44999 11.9587 1.56446 12.6594 0.90004 13.5492C0.780569 13.7084 0.729204 13.9084 0.757247 14.1054C0.785289 14.3024 0.890442 14.4802 1.04957 14.5997C1.2087 14.7192 1.40877 14.7705 1.60577 14.7425C1.80278 14.7145 1.98057 14.6093 2.10004 14.4502C2.55209 13.8425 3.14049 13.3495 3.81788 13.0108C4.49526 12.6721 5.24271 12.4972 6.00004 12.5002C6.19895 12.5002 6.38972 12.4212 6.53037 12.2805C6.67102 12.1398 6.75004 11.9491 6.75004 11.7502Z" fill="#434343"/>
</svg>
