<svg width="20" height="19" viewBox="0 0 20 19" fill="none" xmlns="http://www.w3.org/2000/svg">
<path d="M17.5 0.25H2.5C1.90326 0.25 1.33097 0.487053 0.90901 0.90901C0.487053 1.33097 0.25 1.90326 0.25 2.5V13C0.25 13.5967 0.487053 14.169 0.90901 14.591C1.33097 15.0129 1.90326 15.25 2.5 15.25H17.5C18.0967 15.25 18.669 15.0129 19.091 14.591C19.5129 14.169 19.75 13.5967 19.75 13V2.5C19.75 1.90326 19.5129 1.33097 19.091 0.90901C18.669 0.487053 18.0967 0.25 17.5 0.25ZM18.25 13C18.25 13.1989 18.171 13.3897 18.0303 13.5303C17.8897 13.671 17.6989 13.75 17.5 13.75H2.5C2.30109 13.75 2.11032 13.671 1.96967 13.5303C1.82902 13.3897 1.75 13.1989 1.75 13V2.5C1.75 2.30109 1.82902 2.11032 1.96967 1.96967C2.11032 1.82902 2.30109 1.75 2.5 1.75H17.5C17.6989 1.75 17.8897 1.82902 18.0303 1.96967C18.171 2.11032 18.25 2.30109 18.25 2.5V13ZM13.75 17.5C13.75 17.6989 13.671 17.8897 13.5303 18.0303C13.3897 18.171 13.1989 18.25 13 18.25H7C6.80109 18.25 6.61032 18.171 6.46967 18.0303C6.32902 17.8897 6.25 17.6989 6.25 17.5C6.25 17.3011 6.32902 17.1103 6.46967 16.9697C6.61032 16.829 6.80109 16.75 7 16.75H13C13.1989 16.75 13.3897 16.829 13.5303 16.9697C13.671 17.1103 13.75 17.3011 13.75 17.5Z" fill="#434343"/>
</svg>
